%TF.GenerationSoftware,KiCad,Pcbnew,9.0.2*%
%TF.CreationDate,2025-08-01T16:44:25+02:00*%
%TF.ProjectId,DuploTrainController NG,4475706c-6f54-4726-9169-6e436f6e7472,rev?*%
%TF.SameCoordinates,PX2b953a0PY93c5970*%
%TF.FileFunction,Copper,L1,Top*%
%TF.FilePolarity,Positive*%
%FSLAX46Y46*%
G04 Gerber Fmt 4.6, Leading zero omitted, Abs format (unit mm)*
G04 Created by KiCad (PCBNEW 9.0.2) date 2025-08-01 16:44:25*
%MOMM*%
%LPD*%
G01*
G04 APERTURE LIST*
G04 Aperture macros list*
%AMRoundRect*
0 Rectangle with rounded corners*
0 $1 Rounding radius*
0 $2 $3 $4 $5 $6 $7 $8 $9 X,Y pos of 4 corners*
0 Add a 4 corners polygon primitive as box body*
4,1,4,$2,$3,$4,$5,$6,$7,$8,$9,$2,$3,0*
0 Add four circle primitives for the rounded corners*
1,1,$1+$1,$2,$3*
1,1,$1+$1,$4,$5*
1,1,$1+$1,$6,$7*
1,1,$1+$1,$8,$9*
0 Add four rect primitives between the rounded corners*
20,1,$1+$1,$2,$3,$4,$5,0*
20,1,$1+$1,$4,$5,$6,$7,0*
20,1,$1+$1,$6,$7,$8,$9,0*
20,1,$1+$1,$8,$9,$2,$3,0*%
G04 Aperture macros list end*
%TA.AperFunction,SMDPad,CuDef*%
%ADD10R,2.800000X1.000000*%
%TD*%
%TA.AperFunction,SMDPad,CuDef*%
%ADD11R,4.000000X1.348000*%
%TD*%
%TA.AperFunction,SMDPad,CuDef*%
%ADD12R,2.500000X3.500000*%
%TD*%
%TA.AperFunction,ComponentPad*%
%ADD13RoundRect,0.250000X-0.550000X-0.550000X0.550000X-0.550000X0.550000X0.550000X-0.550000X0.550000X0*%
%TD*%
%TA.AperFunction,ComponentPad*%
%ADD14C,1.600000*%
%TD*%
%TA.AperFunction,ComponentPad*%
%ADD15O,4.100000X3.000000*%
%TD*%
%TA.AperFunction,Conductor*%
%ADD16C,0.500000*%
%TD*%
G04 APERTURE END LIST*
D10*
%TO.P,SW4,1,1*%
%TO.N,Play*%
X41300000Y46750000D03*
X47100000Y46750000D03*
%TO.P,SW4,2,2*%
%TO.N,GND*%
X41300000Y42750000D03*
X47100000Y42750000D03*
%TD*%
D11*
%TO.P,U1,3.3V,3V3*%
%TO.N,3.3V*%
X38020000Y117170000D03*
%TO.P,U1,5V,5V*%
%TO.N,unconnected-(U1-Pad5V)*%
X38020000Y122250000D03*
D12*
%TO.P,U1,B+,B+*%
%TO.N,unconnected-(U1-PadB+)*%
X31400000Y122850000D03*
%TO.P,U1,B-,B-*%
%TO.N,unconnected-(U1-PadB-)*%
X27400000Y122850000D03*
D11*
%TO.P,U1,GND,GND*%
%TO.N,GND*%
X38020000Y119710000D03*
%TO.P,U1,GP1,GPIO1*%
%TO.N,Lichtauswahl*%
X20780000Y117170000D03*
%TO.P,U1,GP2,GPIO2*%
%TO.N,Record*%
X20780000Y114630000D03*
%TO.P,U1,GP3,GPIO3*%
%TO.N,unconnected-(U1-GPIO3-PadGP3)*%
X20780000Y112090000D03*
%TO.P,U1,GP4,GPIO4*%
%TO.N,ENC_2*%
X20780000Y109550000D03*
%TO.P,U1,GP5,GPIO5*%
%TO.N,ENC_1*%
X20780000Y107010000D03*
%TO.P,U1,GP6,GPIO6*%
%TO.N,Not_Aus*%
X20780000Y104470000D03*
%TO.P,U1,GP7,GPIO7*%
%TO.N,Play*%
X20780000Y101850000D03*
%TO.P,U1,GP8,GPIO8*%
%TO.N,Ger\u00E4uschauswahl*%
X38020000Y101850000D03*
%TO.P,U1,GP9,GPIO9*%
%TO.N,unconnected-(U1-GPIO9-PadGP9)*%
X38020000Y104470000D03*
%TO.P,U1,GP10,GPIO10*%
%TO.N,unconnected-(U1-GPIO10-PadGP10)*%
X38020000Y107010000D03*
%TO.P,U1,GP11,GPIO11*%
%TO.N,unconnected-(U1-GPIO11-PadGP11)*%
X38020000Y109550000D03*
%TO.P,U1,GP12,GPIO12*%
%TO.N,unconnected-(U1-GPIO12-PadGP12)*%
X38020000Y112090000D03*
%TO.P,U1,GP13,GPIO13*%
%TO.N,unconnected-(U1-GPIO13-PadGP13)*%
X38020000Y114630000D03*
%TO.P,U1,RX,RX*%
%TO.N,unconnected-(U1-PadRX)*%
X20780000Y119710000D03*
%TO.P,U1,TX,TX*%
%TO.N,unconnected-(U1-PadTX)*%
X20780000Y122250000D03*
%TD*%
D13*
%TO.P,SW5,A,A*%
%TO.N,ENC_1*%
X21520000Y87240000D03*
D14*
%TO.P,SW5,B,B*%
%TO.N,ENC_2*%
X21520000Y82240000D03*
%TO.P,SW5,C,C*%
%TO.N,GND*%
X21520000Y84740000D03*
%TO.P,SW5,S1,S1*%
%TO.N,Not_Aus*%
X36020000Y87240000D03*
%TO.P,SW5,S2,S2*%
%TO.N,GND*%
X36020000Y82240000D03*
D15*
%TO.P,SW5,SH*%
%TO.N,N/C*%
X29020000Y90340000D03*
X29020000Y79140000D03*
%TD*%
D10*
%TO.P,SW3,1,1*%
%TO.N,GND*%
X12350000Y20000000D03*
X18150000Y20000000D03*
%TO.P,SW3,2,2*%
%TO.N,Lichtauswahl*%
X12350000Y16000000D03*
X18150000Y16000000D03*
%TD*%
%TO.P,SW1,1,1*%
%TO.N,Record*%
X12600000Y46750000D03*
X18400000Y46750000D03*
%TO.P,SW1,2,2*%
%TO.N,GND*%
X12600000Y42750000D03*
X18400000Y42750000D03*
%TD*%
%TO.P,SW2,1,1*%
%TO.N,GND*%
X41050000Y20000000D03*
X46850000Y20000000D03*
%TO.P,SW2,2,2*%
%TO.N,Ger\u00E4uschauswahl*%
X41050000Y16000000D03*
X46850000Y16000000D03*
%TD*%
D16*
%TO.N,Record*%
X12600000Y46750000D02*
X12590000Y46750000D01*
X12600000Y46750000D02*
X18400000Y46750000D01*
X21780000Y114630000D02*
X13980000Y114630000D01*
X11250000Y48100000D02*
X12600000Y46750000D01*
X13980000Y114630000D02*
X11250000Y111900000D01*
X11250000Y111900000D02*
X11250000Y48100000D01*
%TO.N,Lichtauswahl*%
X12140000Y16210000D02*
X12350000Y16000000D01*
X10770000Y117170000D02*
X8800000Y115200000D01*
X21780000Y117170000D02*
X10770000Y117170000D01*
X12350000Y16000000D02*
X9850000Y16000000D01*
X12350000Y16000000D02*
X18150000Y16000000D01*
X8800000Y115200000D02*
X8800000Y17050000D01*
X9850000Y16000000D02*
X8800000Y17050000D01*
%TO.N,Play*%
X40900000Y47150000D02*
X41300000Y46750000D01*
X40900000Y95050000D02*
X40900000Y47150000D01*
X37450000Y98500000D02*
X40900000Y95050000D01*
X41300000Y46750000D02*
X47100000Y46750000D01*
X21780000Y101850000D02*
X21800000Y101830000D01*
X21800000Y101830000D02*
X21800000Y98500000D01*
X21800000Y98500000D02*
X37450000Y98500000D01*
%TO.N,Not_Aus*%
X17550000Y104450000D02*
X17550000Y97700000D01*
X21780000Y104470000D02*
X17570000Y104470000D01*
X17570000Y104470000D02*
X17550000Y104450000D01*
X17550000Y97700000D02*
X19600000Y95650000D01*
X19600000Y95650000D02*
X34950000Y95650000D01*
X36020000Y94580000D02*
X36020000Y87240000D01*
X34950000Y95650000D02*
X36020000Y94580000D01*
%TO.N,ENC_2*%
X21430000Y82150000D02*
X21520000Y82240000D01*
X17400000Y82150000D02*
X21430000Y82150000D01*
X13350000Y86200000D02*
X17400000Y82150000D01*
X16000000Y109550000D02*
X13350000Y106900000D01*
X21780000Y109550000D02*
X16000000Y109550000D01*
X13350000Y106900000D02*
X13350000Y86200000D01*
%TO.N,ENC_1*%
X15500000Y106150000D02*
X15500000Y90150000D01*
X18410000Y87240000D02*
X21520000Y87240000D01*
X16360000Y107010000D02*
X15500000Y106150000D01*
X21780000Y107010000D02*
X16360000Y107010000D01*
X15500000Y90150000D02*
X18410000Y87240000D01*
X21260000Y87500000D02*
X21520000Y87240000D01*
%TO.N,Ger\u00E4uschauswahl*%
X44100000Y101850000D02*
X53200000Y92750000D01*
X53200000Y92750000D02*
X53200000Y17330000D01*
X46850000Y16000000D02*
X41050000Y16000000D01*
X53200000Y17330000D02*
X51720000Y15850000D01*
X37020000Y101850000D02*
X44100000Y101850000D01*
X51720000Y15850000D02*
X46700000Y15850000D01*
%TD*%
%TA.AperFunction,Conductor*%
%TO.N,GND*%
G36*
X17953439Y123419815D02*
G01*
X17999194Y123367011D01*
X18009138Y123297853D01*
X17997488Y123260406D01*
X17976964Y123219024D01*
X17976963Y123219022D01*
X17932317Y123039500D01*
X17929500Y122997952D01*
X17929500Y121502049D01*
X17932317Y121460501D01*
X17976963Y121280979D01*
X17976964Y121280977D01*
X18059155Y121115251D01*
X18059157Y121115248D01*
X18105426Y121057687D01*
X18132085Y120993103D01*
X18119594Y120924359D01*
X18105426Y120902313D01*
X18059157Y120844753D01*
X18059155Y120844750D01*
X17976964Y120679024D01*
X17976963Y120679022D01*
X17932317Y120499500D01*
X17929500Y120457952D01*
X17929500Y118962049D01*
X17932317Y118920501D01*
X17976963Y118740979D01*
X17976964Y118740977D01*
X18059155Y118575251D01*
X18059157Y118575248D01*
X18105426Y118517687D01*
X18117076Y118489463D01*
X18130782Y118462167D01*
X18130282Y118457470D01*
X18132085Y118453103D01*
X18126625Y118423057D01*
X18123398Y118392688D01*
X18120092Y118387101D01*
X18119594Y118384359D01*
X18105426Y118362313D01*
X18068852Y118316813D01*
X18011509Y118276894D01*
X17972205Y118270500D01*
X10683389Y118270500D01*
X10643728Y118264219D01*
X10512302Y118243403D01*
X10347552Y118189872D01*
X10193211Y118111232D01*
X10113256Y118053141D01*
X10053072Y118009414D01*
X10053070Y118009412D01*
X10053069Y118009412D01*
X7960588Y115916931D01*
X7960588Y115916930D01*
X7960586Y115916928D01*
X7916859Y115856744D01*
X7858768Y115776789D01*
X7780128Y115622448D01*
X7726597Y115457698D01*
X7713967Y115377954D01*
X7699500Y115286611D01*
X7699500Y17136611D01*
X7699500Y16963389D01*
X7707677Y16911761D01*
X7726166Y16795022D01*
X7726598Y16792299D01*
X7780127Y16627555D01*
X7858768Y16473212D01*
X7960586Y16333072D01*
X9133072Y15160586D01*
X9273212Y15058768D01*
X9346131Y15021614D01*
X9427549Y14980129D01*
X9427551Y14980129D01*
X9427554Y14980127D01*
X9592299Y14926598D01*
X9763389Y14899500D01*
X9936611Y14899500D01*
X10295877Y14899500D01*
X10362916Y14879815D01*
X10373562Y14872149D01*
X10489247Y14779158D01*
X10654979Y14696963D01*
X10834501Y14652318D01*
X10834502Y14652318D01*
X10834505Y14652317D01*
X10876046Y14649500D01*
X10876048Y14649500D01*
X13823952Y14649500D01*
X13823954Y14649500D01*
X13865495Y14652317D01*
X14045021Y14696963D01*
X14210753Y14779158D01*
X14326435Y14872148D01*
X14391019Y14898806D01*
X14404123Y14899500D01*
X16095877Y14899500D01*
X16162916Y14879815D01*
X16173562Y14872149D01*
X16289247Y14779158D01*
X16454979Y14696963D01*
X16634501Y14652318D01*
X16634502Y14652318D01*
X16634505Y14652317D01*
X16676046Y14649500D01*
X16676048Y14649500D01*
X19623952Y14649500D01*
X19623954Y14649500D01*
X19665495Y14652317D01*
X19845021Y14696963D01*
X20010753Y14779158D01*
X20154940Y14895060D01*
X20270842Y15039247D01*
X20353037Y15204979D01*
X20397683Y15384505D01*
X20400500Y15426046D01*
X20400500Y16573954D01*
X20397683Y16615495D01*
X20353037Y16795021D01*
X20270842Y16960753D01*
X20181175Y17072303D01*
X20154940Y17104941D01*
X20052785Y17187055D01*
X20010753Y17220842D01*
X20010751Y17220843D01*
X20010750Y17220844D01*
X19845023Y17303036D01*
X19845021Y17303037D01*
X19665497Y17347683D01*
X19665501Y17347683D01*
X19634339Y17349796D01*
X19623954Y17350500D01*
X16676046Y17350500D01*
X16664177Y17349696D01*
X16634500Y17347683D01*
X16454978Y17303037D01*
X16454976Y17303036D01*
X16289249Y17220844D01*
X16289247Y17220842D01*
X16174399Y17128523D01*
X16173565Y17127853D01*
X16108981Y17101194D01*
X16095877Y17100500D01*
X14404123Y17100500D01*
X14337084Y17120185D01*
X14326435Y17127853D01*
X14210753Y17220842D01*
X14210751Y17220843D01*
X14210750Y17220844D01*
X14045023Y17303036D01*
X14045021Y17303037D01*
X13865497Y17347683D01*
X13865501Y17347683D01*
X13834339Y17349796D01*
X13823954Y17350500D01*
X10876046Y17350500D01*
X10864177Y17349696D01*
X10834500Y17347683D01*
X10654978Y17303037D01*
X10654976Y17303036D01*
X10489249Y17220844D01*
X10407563Y17155182D01*
X10342979Y17128523D01*
X10274234Y17141013D01*
X10242194Y17164148D01*
X9936819Y17469523D01*
X9903334Y17530846D01*
X9900500Y17557204D01*
X9900500Y19452156D01*
X10450000Y19452156D01*
X10456401Y19392628D01*
X10456403Y19392621D01*
X10506645Y19257914D01*
X10506649Y19257907D01*
X10592809Y19142813D01*
X10592812Y19142810D01*
X10707906Y19056650D01*
X10707913Y19056646D01*
X10842620Y19006404D01*
X10842627Y19006402D01*
X10902155Y19000001D01*
X10902172Y19000000D01*
X12100000Y19000000D01*
X12600000Y19000000D01*
X13797828Y19000000D01*
X13797844Y19000001D01*
X13857372Y19006402D01*
X13857379Y19006404D01*
X13992086Y19056646D01*
X13992093Y19056650D01*
X14107187Y19142810D01*
X14107190Y19142813D01*
X14193350Y19257907D01*
X14193354Y19257914D01*
X14243596Y19392621D01*
X14243598Y19392628D01*
X14249999Y19452156D01*
X16250000Y19452156D01*
X16256401Y19392628D01*
X16256403Y19392621D01*
X16306645Y19257914D01*
X16306649Y19257907D01*
X16392809Y19142813D01*
X16392812Y19142810D01*
X16507906Y19056650D01*
X16507913Y19056646D01*
X16642620Y19006404D01*
X16642627Y19006402D01*
X16702155Y19000001D01*
X16702172Y19000000D01*
X17900000Y19000000D01*
X18400000Y19000000D01*
X19597828Y19000000D01*
X19597844Y19000001D01*
X19657372Y19006402D01*
X19657379Y19006404D01*
X19792086Y19056646D01*
X19792093Y19056650D01*
X19907187Y19142810D01*
X19907190Y19142813D01*
X19993350Y19257907D01*
X19993354Y19257914D01*
X20043596Y19392621D01*
X20043598Y19392628D01*
X20049999Y19452156D01*
X39150000Y19452156D01*
X39156401Y19392628D01*
X39156403Y19392621D01*
X39206645Y19257914D01*
X39206649Y19257907D01*
X39292809Y19142813D01*
X39292812Y19142810D01*
X39407906Y19056650D01*
X39407913Y19056646D01*
X39542620Y19006404D01*
X39542627Y19006402D01*
X39602155Y19000001D01*
X39602172Y19000000D01*
X40800000Y19000000D01*
X41300000Y19000000D01*
X42497828Y19000000D01*
X42497844Y19000001D01*
X42557372Y19006402D01*
X42557379Y19006404D01*
X42692086Y19056646D01*
X42692093Y19056650D01*
X42807187Y19142810D01*
X42807190Y19142813D01*
X42893350Y19257907D01*
X42893354Y19257914D01*
X42943596Y19392621D01*
X42943598Y19392628D01*
X42949999Y19452156D01*
X44950000Y19452156D01*
X44956401Y19392628D01*
X44956403Y19392621D01*
X45006645Y19257914D01*
X45006649Y19257907D01*
X45092809Y19142813D01*
X45092812Y19142810D01*
X45207906Y19056650D01*
X45207913Y19056646D01*
X45342620Y19006404D01*
X45342627Y19006402D01*
X45402155Y19000001D01*
X45402172Y19000000D01*
X46600000Y19000000D01*
X47100000Y19000000D01*
X48297828Y19000000D01*
X48297844Y19000001D01*
X48357372Y19006402D01*
X48357379Y19006404D01*
X48492086Y19056646D01*
X48492093Y19056650D01*
X48607187Y19142810D01*
X48607190Y19142813D01*
X48693350Y19257907D01*
X48693354Y19257914D01*
X48743596Y19392621D01*
X48743598Y19392628D01*
X48749999Y19452156D01*
X48750000Y19452173D01*
X48750000Y19750000D01*
X47100000Y19750000D01*
X47100000Y19000000D01*
X46600000Y19000000D01*
X46600000Y19750000D01*
X44950000Y19750000D01*
X44950000Y19452156D01*
X42949999Y19452156D01*
X42950000Y19452173D01*
X42950000Y19750000D01*
X41300000Y19750000D01*
X41300000Y19000000D01*
X40800000Y19000000D01*
X40800000Y19750000D01*
X39150000Y19750000D01*
X39150000Y19452156D01*
X20049999Y19452156D01*
X20050000Y19452173D01*
X20050000Y19750000D01*
X18400000Y19750000D01*
X18400000Y19000000D01*
X17900000Y19000000D01*
X17900000Y19750000D01*
X16250000Y19750000D01*
X16250000Y19452156D01*
X14249999Y19452156D01*
X14250000Y19452173D01*
X14250000Y19750000D01*
X12600000Y19750000D01*
X12600000Y19000000D01*
X12100000Y19000000D01*
X12100000Y19750000D01*
X10450000Y19750000D01*
X10450000Y19452156D01*
X9900500Y19452156D01*
X9900500Y20547845D01*
X10450000Y20547845D01*
X10450000Y20250000D01*
X12100000Y20250000D01*
X12600000Y20250000D01*
X14250000Y20250000D01*
X14250000Y20547828D01*
X14249999Y20547845D01*
X16250000Y20547845D01*
X16250000Y20250000D01*
X17900000Y20250000D01*
X18400000Y20250000D01*
X20050000Y20250000D01*
X20050000Y20547828D01*
X20049999Y20547845D01*
X39150000Y20547845D01*
X39150000Y20250000D01*
X40800000Y20250000D01*
X41300000Y20250000D01*
X42950000Y20250000D01*
X42950000Y20547828D01*
X42949999Y20547845D01*
X44950000Y20547845D01*
X44950000Y20250000D01*
X46600000Y20250000D01*
X47100000Y20250000D01*
X48750000Y20250000D01*
X48750000Y20547828D01*
X48749999Y20547845D01*
X48743598Y20607373D01*
X48743596Y20607380D01*
X48693354Y20742087D01*
X48693350Y20742094D01*
X48607190Y20857188D01*
X48607187Y20857191D01*
X48492093Y20943351D01*
X48492086Y20943355D01*
X48357379Y20993597D01*
X48357372Y20993599D01*
X48297844Y21000000D01*
X47100000Y21000000D01*
X47100000Y20250000D01*
X46600000Y20250000D01*
X46600000Y21000000D01*
X45402155Y21000000D01*
X45342627Y20993599D01*
X45342620Y20993597D01*
X45207913Y20943355D01*
X45207906Y20943351D01*
X45092812Y20857191D01*
X45092809Y20857188D01*
X45006649Y20742094D01*
X45006645Y20742087D01*
X44956403Y20607380D01*
X44956401Y20607373D01*
X44950000Y20547845D01*
X42949999Y20547845D01*
X42943598Y20607373D01*
X42943596Y20607380D01*
X42893354Y20742087D01*
X42893350Y20742094D01*
X42807190Y20857188D01*
X42807187Y20857191D01*
X42692093Y20943351D01*
X42692086Y20943355D01*
X42557379Y20993597D01*
X42557372Y20993599D01*
X42497844Y21000000D01*
X41300000Y21000000D01*
X41300000Y20250000D01*
X40800000Y20250000D01*
X40800000Y21000000D01*
X39602155Y21000000D01*
X39542627Y20993599D01*
X39542620Y20993597D01*
X39407913Y20943355D01*
X39407906Y20943351D01*
X39292812Y20857191D01*
X39292809Y20857188D01*
X39206649Y20742094D01*
X39206645Y20742087D01*
X39156403Y20607380D01*
X39156401Y20607373D01*
X39150000Y20547845D01*
X20049999Y20547845D01*
X20043598Y20607373D01*
X20043596Y20607380D01*
X19993354Y20742087D01*
X19993350Y20742094D01*
X19907190Y20857188D01*
X19907187Y20857191D01*
X19792093Y20943351D01*
X19792086Y20943355D01*
X19657379Y20993597D01*
X19657372Y20993599D01*
X19597844Y21000000D01*
X18400000Y21000000D01*
X18400000Y20250000D01*
X17900000Y20250000D01*
X17900000Y21000000D01*
X16702155Y21000000D01*
X16642627Y20993599D01*
X16642620Y20993597D01*
X16507913Y20943355D01*
X16507906Y20943351D01*
X16392812Y20857191D01*
X16392809Y20857188D01*
X16306649Y20742094D01*
X16306645Y20742087D01*
X16256403Y20607380D01*
X16256401Y20607373D01*
X16250000Y20547845D01*
X14249999Y20547845D01*
X14243598Y20607373D01*
X14243596Y20607380D01*
X14193354Y20742087D01*
X14193350Y20742094D01*
X14107190Y20857188D01*
X14107187Y20857191D01*
X13992093Y20943351D01*
X13992086Y20943355D01*
X13857379Y20993597D01*
X13857372Y20993599D01*
X13797844Y21000000D01*
X12600000Y21000000D01*
X12600000Y20250000D01*
X12100000Y20250000D01*
X12100000Y21000000D01*
X10902155Y21000000D01*
X10842627Y20993599D01*
X10842620Y20993597D01*
X10707913Y20943355D01*
X10707906Y20943351D01*
X10592812Y20857191D01*
X10592809Y20857188D01*
X10506649Y20742094D01*
X10506645Y20742087D01*
X10456403Y20607380D01*
X10456401Y20607373D01*
X10450000Y20547845D01*
X9900500Y20547845D01*
X9900500Y42202156D01*
X10700000Y42202156D01*
X10706401Y42142628D01*
X10706403Y42142621D01*
X10756645Y42007914D01*
X10756649Y42007907D01*
X10842809Y41892813D01*
X10842812Y41892810D01*
X10957906Y41806650D01*
X10957913Y41806646D01*
X11092620Y41756404D01*
X11092627Y41756402D01*
X11152155Y41750001D01*
X11152172Y41750000D01*
X12350000Y41750000D01*
X12850000Y41750000D01*
X14047828Y41750000D01*
X14047844Y41750001D01*
X14107372Y41756402D01*
X14107379Y41756404D01*
X14242086Y41806646D01*
X14242093Y41806650D01*
X14357187Y41892810D01*
X14357190Y41892813D01*
X14443350Y42007907D01*
X14443354Y42007914D01*
X14493596Y42142621D01*
X14493598Y42142628D01*
X14499999Y42202156D01*
X16500000Y42202156D01*
X16506401Y42142628D01*
X16506403Y42142621D01*
X16556645Y42007914D01*
X16556649Y42007907D01*
X16642809Y41892813D01*
X16642812Y41892810D01*
X16757906Y41806650D01*
X16757913Y41806646D01*
X16892620Y41756404D01*
X16892627Y41756402D01*
X16952155Y41750001D01*
X16952172Y41750000D01*
X18150000Y41750000D01*
X18650000Y41750000D01*
X19847828Y41750000D01*
X19847844Y41750001D01*
X19907372Y41756402D01*
X19907379Y41756404D01*
X20042086Y41806646D01*
X20042093Y41806650D01*
X20157187Y41892810D01*
X20157190Y41892813D01*
X20243350Y42007907D01*
X20243354Y42007914D01*
X20293596Y42142621D01*
X20293598Y42142628D01*
X20299999Y42202156D01*
X39400000Y42202156D01*
X39406401Y42142628D01*
X39406403Y42142621D01*
X39456645Y42007914D01*
X39456649Y42007907D01*
X39542809Y41892813D01*
X39542812Y41892810D01*
X39657906Y41806650D01*
X39657913Y41806646D01*
X39792620Y41756404D01*
X39792627Y41756402D01*
X39852155Y41750001D01*
X39852172Y41750000D01*
X41050000Y41750000D01*
X41550000Y41750000D01*
X42747828Y41750000D01*
X42747844Y41750001D01*
X42807372Y41756402D01*
X42807379Y41756404D01*
X42942086Y41806646D01*
X42942093Y41806650D01*
X43057187Y41892810D01*
X43057190Y41892813D01*
X43143350Y42007907D01*
X43143354Y42007914D01*
X43193596Y42142621D01*
X43193598Y42142628D01*
X43199999Y42202156D01*
X45200000Y42202156D01*
X45206401Y42142628D01*
X45206403Y42142621D01*
X45256645Y42007914D01*
X45256649Y42007907D01*
X45342809Y41892813D01*
X45342812Y41892810D01*
X45457906Y41806650D01*
X45457913Y41806646D01*
X45592620Y41756404D01*
X45592627Y41756402D01*
X45652155Y41750001D01*
X45652172Y41750000D01*
X46850000Y41750000D01*
X47350000Y41750000D01*
X48547828Y41750000D01*
X48547844Y41750001D01*
X48607372Y41756402D01*
X48607379Y41756404D01*
X48742086Y41806646D01*
X48742093Y41806650D01*
X48857187Y41892810D01*
X48857190Y41892813D01*
X48943350Y42007907D01*
X48943354Y42007914D01*
X48993596Y42142621D01*
X48993598Y42142628D01*
X48999999Y42202156D01*
X49000000Y42202173D01*
X49000000Y42500000D01*
X47350000Y42500000D01*
X47350000Y41750000D01*
X46850000Y41750000D01*
X46850000Y42500000D01*
X45200000Y42500000D01*
X45200000Y42202156D01*
X43199999Y42202156D01*
X43200000Y42202173D01*
X43200000Y42500000D01*
X41550000Y42500000D01*
X41550000Y41750000D01*
X41050000Y41750000D01*
X41050000Y42500000D01*
X39400000Y42500000D01*
X39400000Y42202156D01*
X20299999Y42202156D01*
X20300000Y42202173D01*
X20300000Y42500000D01*
X18650000Y42500000D01*
X18650000Y41750000D01*
X18150000Y41750000D01*
X18150000Y42500000D01*
X16500000Y42500000D01*
X16500000Y42202156D01*
X14499999Y42202156D01*
X14500000Y42202173D01*
X14500000Y42500000D01*
X12850000Y42500000D01*
X12850000Y41750000D01*
X12350000Y41750000D01*
X12350000Y42500000D01*
X10700000Y42500000D01*
X10700000Y42202156D01*
X9900500Y42202156D01*
X9900500Y43297845D01*
X10700000Y43297845D01*
X10700000Y43000000D01*
X12350000Y43000000D01*
X12850000Y43000000D01*
X14500000Y43000000D01*
X14500000Y43297828D01*
X14499999Y43297845D01*
X16500000Y43297845D01*
X16500000Y43000000D01*
X18150000Y43000000D01*
X18650000Y43000000D01*
X20300000Y43000000D01*
X20300000Y43297828D01*
X20299999Y43297845D01*
X39400000Y43297845D01*
X39400000Y43000000D01*
X41050000Y43000000D01*
X41550000Y43000000D01*
X43200000Y43000000D01*
X43200000Y43297828D01*
X43199999Y43297845D01*
X45200000Y43297845D01*
X45200000Y43000000D01*
X46850000Y43000000D01*
X47350000Y43000000D01*
X49000000Y43000000D01*
X49000000Y43297828D01*
X48999999Y43297845D01*
X48993598Y43357373D01*
X48993596Y43357380D01*
X48943354Y43492087D01*
X48943350Y43492094D01*
X48857190Y43607188D01*
X48857187Y43607191D01*
X48742093Y43693351D01*
X48742086Y43693355D01*
X48607379Y43743597D01*
X48607372Y43743599D01*
X48547844Y43750000D01*
X47350000Y43750000D01*
X47350000Y43000000D01*
X46850000Y43000000D01*
X46850000Y43750000D01*
X45652155Y43750000D01*
X45592627Y43743599D01*
X45592620Y43743597D01*
X45457913Y43693355D01*
X45457906Y43693351D01*
X45342812Y43607191D01*
X45342809Y43607188D01*
X45256649Y43492094D01*
X45256645Y43492087D01*
X45206403Y43357380D01*
X45206401Y43357373D01*
X45200000Y43297845D01*
X43199999Y43297845D01*
X43193598Y43357373D01*
X43193596Y43357380D01*
X43143354Y43492087D01*
X43143350Y43492094D01*
X43057190Y43607188D01*
X43057187Y43607191D01*
X42942093Y43693351D01*
X42942086Y43693355D01*
X42807379Y43743597D01*
X42807372Y43743599D01*
X42747844Y43750000D01*
X41550000Y43750000D01*
X41550000Y43000000D01*
X41050000Y43000000D01*
X41050000Y43750000D01*
X39852155Y43750000D01*
X39792627Y43743599D01*
X39792620Y43743597D01*
X39657913Y43693355D01*
X39657906Y43693351D01*
X39542812Y43607191D01*
X39542809Y43607188D01*
X39456649Y43492094D01*
X39456645Y43492087D01*
X39406403Y43357380D01*
X39406401Y43357373D01*
X39400000Y43297845D01*
X20299999Y43297845D01*
X20293598Y43357373D01*
X20293596Y43357380D01*
X20243354Y43492087D01*
X20243350Y43492094D01*
X20157190Y43607188D01*
X20157187Y43607191D01*
X20042093Y43693351D01*
X20042086Y43693355D01*
X19907379Y43743597D01*
X19907372Y43743599D01*
X19847844Y43750000D01*
X18650000Y43750000D01*
X18650000Y43000000D01*
X18150000Y43000000D01*
X18150000Y43750000D01*
X16952155Y43750000D01*
X16892627Y43743599D01*
X16892620Y43743597D01*
X16757913Y43693355D01*
X16757906Y43693351D01*
X16642812Y43607191D01*
X16642809Y43607188D01*
X16556649Y43492094D01*
X16556645Y43492087D01*
X16506403Y43357380D01*
X16506401Y43357373D01*
X16500000Y43297845D01*
X14499999Y43297845D01*
X14493598Y43357373D01*
X14493596Y43357380D01*
X14443354Y43492087D01*
X14443350Y43492094D01*
X14357190Y43607188D01*
X14357187Y43607191D01*
X14242093Y43693351D01*
X14242086Y43693355D01*
X14107379Y43743597D01*
X14107372Y43743599D01*
X14047844Y43750000D01*
X12850000Y43750000D01*
X12850000Y43000000D01*
X12350000Y43000000D01*
X12350000Y43750000D01*
X11152155Y43750000D01*
X11092627Y43743599D01*
X11092620Y43743597D01*
X10957913Y43693355D01*
X10957906Y43693351D01*
X10842812Y43607191D01*
X10842809Y43607188D01*
X10756649Y43492094D01*
X10756645Y43492087D01*
X10706403Y43357380D01*
X10706401Y43357373D01*
X10700000Y43297845D01*
X9900500Y43297845D01*
X9900500Y114692796D01*
X9920185Y114759835D01*
X9936819Y114780477D01*
X11189523Y116033181D01*
X11250846Y116066666D01*
X11277204Y116069500D01*
X17972205Y116069500D01*
X17974483Y116068832D01*
X17976783Y116069415D01*
X18007831Y116059039D01*
X18039244Y116049815D01*
X18041498Y116047788D01*
X18043050Y116047269D01*
X18068852Y116023187D01*
X18105426Y115977687D01*
X18132085Y115913103D01*
X18119595Y115844359D01*
X18105426Y115822313D01*
X18068852Y115776813D01*
X18011509Y115736894D01*
X17972205Y115730500D01*
X14066611Y115730500D01*
X13893389Y115730500D01*
X13853728Y115724219D01*
X13722302Y115703403D01*
X13557552Y115649872D01*
X13403211Y115571232D01*
X13323256Y115513141D01*
X13263072Y115469414D01*
X13263070Y115469412D01*
X13263069Y115469412D01*
X10410588Y112616931D01*
X10410588Y112616930D01*
X10410586Y112616928D01*
X10366859Y112556744D01*
X10308768Y112476789D01*
X10230128Y112322448D01*
X10176597Y112157698D01*
X10149500Y111986611D01*
X10149500Y48013390D01*
X10174595Y47854941D01*
X10176598Y47842299D01*
X10230127Y47677555D01*
X10297655Y47545022D01*
X10308770Y47523209D01*
X10336471Y47485081D01*
X10359951Y47419275D01*
X10356489Y47382274D01*
X10352317Y47365500D01*
X10349500Y47323952D01*
X10349500Y46176049D01*
X10352317Y46134501D01*
X10396963Y45954979D01*
X10396964Y45954977D01*
X10479156Y45789250D01*
X10595059Y45645060D01*
X10677173Y45579055D01*
X10739247Y45529158D01*
X10904979Y45446963D01*
X11084501Y45402318D01*
X11084502Y45402318D01*
X11084505Y45402317D01*
X11126046Y45399500D01*
X11126048Y45399500D01*
X14073952Y45399500D01*
X14073954Y45399500D01*
X14115495Y45402317D01*
X14295021Y45446963D01*
X14460753Y45529158D01*
X14576435Y45622148D01*
X14641019Y45648806D01*
X14654123Y45649500D01*
X16345877Y45649500D01*
X16412916Y45629815D01*
X16423562Y45622149D01*
X16539247Y45529158D01*
X16704979Y45446963D01*
X16884501Y45402318D01*
X16884502Y45402318D01*
X16884505Y45402317D01*
X16926046Y45399500D01*
X16926048Y45399500D01*
X19873952Y45399500D01*
X19873954Y45399500D01*
X19915495Y45402317D01*
X20095021Y45446963D01*
X20260753Y45529158D01*
X20404940Y45645060D01*
X20520842Y45789247D01*
X20603037Y45954979D01*
X20647683Y46134505D01*
X20650500Y46176046D01*
X20650500Y47323954D01*
X20647683Y47365495D01*
X20603037Y47545021D01*
X20520842Y47710753D01*
X20470945Y47772827D01*
X20404940Y47854941D01*
X20302785Y47937055D01*
X20260753Y47970842D01*
X20260751Y47970843D01*
X20260750Y47970844D01*
X20095023Y48053036D01*
X20095021Y48053037D01*
X19915497Y48097683D01*
X19915501Y48097683D01*
X19884339Y48099796D01*
X19873954Y48100500D01*
X16926046Y48100500D01*
X16914177Y48099696D01*
X16884500Y48097683D01*
X16704978Y48053037D01*
X16704976Y48053036D01*
X16539249Y47970844D01*
X16423565Y47877853D01*
X16358981Y47851194D01*
X16345877Y47850500D01*
X14654123Y47850500D01*
X14587084Y47870185D01*
X14576435Y47877853D01*
X14460753Y47970842D01*
X14460751Y47970843D01*
X14460750Y47970844D01*
X14295023Y48053036D01*
X14295021Y48053037D01*
X14115497Y48097683D01*
X14115501Y48097683D01*
X14084339Y48099796D01*
X14073954Y48100500D01*
X14073952Y48100500D01*
X12857204Y48100500D01*
X12790165Y48120185D01*
X12769523Y48136819D01*
X12386819Y48519523D01*
X12353334Y48580846D01*
X12350500Y48607204D01*
X12350500Y79294054D01*
X26119500Y79294054D01*
X26119500Y78985947D01*
X26119501Y78985931D01*
X26159717Y78680458D01*
X26239464Y78382838D01*
X26357376Y78098174D01*
X26357381Y78098163D01*
X26450014Y77937720D01*
X26511438Y77831330D01*
X26511440Y77831327D01*
X26511441Y77831326D01*
X26699007Y77586885D01*
X26699013Y77586878D01*
X26916877Y77369014D01*
X26916883Y77369009D01*
X27161330Y77181438D01*
X27332830Y77082422D01*
X27428162Y77027382D01*
X27428167Y77027380D01*
X27428170Y77027378D01*
X27712836Y76909465D01*
X28010456Y76829718D01*
X28315940Y76789500D01*
X28315947Y76789500D01*
X29724053Y76789500D01*
X29724060Y76789500D01*
X30029544Y76829718D01*
X30327164Y76909465D01*
X30611830Y77027378D01*
X30878670Y77181438D01*
X31123117Y77369009D01*
X31340991Y77586883D01*
X31528562Y77831330D01*
X31682622Y78098170D01*
X31800535Y78382836D01*
X31880282Y78680456D01*
X31920500Y78985940D01*
X31920500Y79294060D01*
X31880282Y79599544D01*
X31800535Y79897164D01*
X31682622Y80181830D01*
X31682620Y80181833D01*
X31682618Y80181838D01*
X31627578Y80277170D01*
X31528562Y80448670D01*
X31340991Y80693117D01*
X31340986Y80693123D01*
X31123122Y80910987D01*
X31123115Y80910993D01*
X30878677Y81098557D01*
X30878675Y81098559D01*
X30878670Y81098562D01*
X30819383Y81132792D01*
X30611837Y81252619D01*
X30611826Y81252624D01*
X30327162Y81370536D01*
X30029542Y81450283D01*
X29724069Y81490499D01*
X29724066Y81490500D01*
X29724060Y81490500D01*
X28315940Y81490500D01*
X28315934Y81490500D01*
X28315930Y81490499D01*
X28010457Y81450283D01*
X27712837Y81370536D01*
X27428173Y81252624D01*
X27428162Y81252619D01*
X27161325Y81098559D01*
X26916884Y80910993D01*
X26916877Y80910987D01*
X26699013Y80693123D01*
X26699007Y80693116D01*
X26511441Y80448675D01*
X26357381Y80181838D01*
X26357376Y80181827D01*
X26239464Y79897163D01*
X26159717Y79599543D01*
X26119501Y79294070D01*
X26119500Y79294054D01*
X12350500Y79294054D01*
X12350500Y85343796D01*
X12370185Y85410835D01*
X12422989Y85456590D01*
X12492147Y85466534D01*
X12555703Y85437509D01*
X12562181Y85431477D01*
X16683072Y81310586D01*
X16823212Y81208768D01*
X16977555Y81130127D01*
X17142299Y81076598D01*
X17313389Y81049500D01*
X17486611Y81049500D01*
X20324978Y81049500D01*
X20392017Y81029815D01*
X20412659Y81013181D01*
X20444771Y80981069D01*
X20654949Y80828366D01*
X20802445Y80753213D01*
X20886423Y80710423D01*
X20886425Y80710423D01*
X20886428Y80710421D01*
X21133507Y80630140D01*
X21265706Y80609203D01*
X21390098Y80589500D01*
X21390103Y80589500D01*
X21649902Y80589500D01*
X21763298Y80607461D01*
X21906493Y80630140D01*
X22153572Y80710421D01*
X22385051Y80828366D01*
X22595229Y80981069D01*
X22778931Y81164771D01*
X22931634Y81374949D01*
X23049579Y81606428D01*
X23129860Y81853507D01*
X23160507Y82047007D01*
X23170500Y82110098D01*
X23170500Y82342318D01*
X34720000Y82342318D01*
X34720000Y82137683D01*
X34752009Y81935583D01*
X34815244Y81740969D01*
X34908141Y81558650D01*
X34908147Y81558641D01*
X34940523Y81514079D01*
X34940524Y81514078D01*
X35537037Y82110591D01*
X35554075Y82047007D01*
X35619901Y81932993D01*
X35712993Y81839901D01*
X35827007Y81774075D01*
X35890590Y81757038D01*
X35294076Y81160526D01*
X35338650Y81128141D01*
X35520968Y81035245D01*
X35715582Y80972010D01*
X35917683Y80940000D01*
X36122317Y80940000D01*
X36324417Y80972010D01*
X36519031Y81035245D01*
X36701349Y81128141D01*
X36745921Y81160526D01*
X36149409Y81757038D01*
X36212993Y81774075D01*
X36327007Y81839901D01*
X36420099Y81932993D01*
X36485925Y82047007D01*
X36502962Y82110591D01*
X37099474Y81514079D01*
X37131859Y81558651D01*
X37224755Y81740969D01*
X37287990Y81935583D01*
X37320000Y82137683D01*
X37320000Y82342318D01*
X37287990Y82544418D01*
X37224755Y82739032D01*
X37131859Y82921350D01*
X37099474Y82965923D01*
X37099474Y82965924D01*
X36502962Y82369411D01*
X36485925Y82432993D01*
X36420099Y82547007D01*
X36327007Y82640099D01*
X36212993Y82705925D01*
X36149408Y82722963D01*
X36745922Y83319476D01*
X36745921Y83319477D01*
X36701359Y83351853D01*
X36701350Y83351859D01*
X36519031Y83444756D01*
X36324417Y83507991D01*
X36122317Y83540000D01*
X35917683Y83540000D01*
X35715582Y83507991D01*
X35520968Y83444756D01*
X35338644Y83351857D01*
X35294077Y83319477D01*
X35294077Y83319476D01*
X35890591Y82722963D01*
X35827007Y82705925D01*
X35712993Y82640099D01*
X35619901Y82547007D01*
X35554075Y82432993D01*
X35537037Y82369410D01*
X34940524Y82965923D01*
X34940523Y82965923D01*
X34908143Y82921356D01*
X34815244Y82739032D01*
X34752009Y82544418D01*
X34720000Y82342318D01*
X23170500Y82342318D01*
X23170500Y82369903D01*
X23142449Y82547007D01*
X23129860Y82626493D01*
X23049579Y82873572D01*
X23049577Y82873575D01*
X23049577Y82873577D01*
X22931633Y83105052D01*
X22778931Y83315229D01*
X22595229Y83498931D01*
X22385051Y83651634D01*
X22310891Y83689421D01*
X22153572Y83769580D01*
X22149072Y83771443D01*
X22149704Y83772969D01*
X22107775Y83798671D01*
X21649409Y84257038D01*
X21712993Y84274075D01*
X21827007Y84339901D01*
X21920099Y84432993D01*
X21985925Y84547007D01*
X22002962Y84610591D01*
X22599474Y84014079D01*
X22631859Y84058651D01*
X22724755Y84240969D01*
X22787990Y84435583D01*
X22820000Y84637683D01*
X22820000Y84842318D01*
X22787990Y85044418D01*
X22724755Y85239032D01*
X22631859Y85421350D01*
X22550247Y85533678D01*
X22526767Y85599484D01*
X22542592Y85667538D01*
X22592698Y85716233D01*
X22598433Y85718969D01*
X22599795Y85719714D01*
X22599813Y85719721D01*
X22773865Y85837523D01*
X22922477Y85986135D01*
X23040279Y86160187D01*
X23123013Y86353388D01*
X23167688Y86558755D01*
X23170500Y86605962D01*
X23170500Y87874038D01*
X23167688Y87921245D01*
X23127702Y88105055D01*
X23123015Y88126603D01*
X23123012Y88126614D01*
X23040281Y88319809D01*
X23040280Y88319811D01*
X23040279Y88319813D01*
X22922477Y88493865D01*
X22773865Y88642477D01*
X22599813Y88760279D01*
X22599811Y88760280D01*
X22599808Y88760282D01*
X22406613Y88843013D01*
X22406602Y88843016D01*
X22201250Y88887688D01*
X22186492Y88888567D01*
X22154038Y88890500D01*
X20885962Y88890500D01*
X20855416Y88888681D01*
X20838749Y88887688D01*
X20633397Y88843016D01*
X20633386Y88843013D01*
X20440191Y88760282D01*
X20266137Y88642479D01*
X20117521Y88493864D01*
X20117518Y88493860D01*
X20050606Y88394997D01*
X19996728Y88350512D01*
X19947916Y88340500D01*
X18917204Y88340500D01*
X18850165Y88360185D01*
X18829523Y88376819D01*
X16712288Y90494054D01*
X26119500Y90494054D01*
X26119500Y90185947D01*
X26119501Y90185931D01*
X26159717Y89880458D01*
X26239464Y89582838D01*
X26357376Y89298174D01*
X26357381Y89298163D01*
X26450014Y89137720D01*
X26511438Y89031330D01*
X26511440Y89031327D01*
X26511441Y89031326D01*
X26699007Y88786885D01*
X26699013Y88786878D01*
X26916877Y88569014D01*
X26916884Y88569008D01*
X27014812Y88493865D01*
X27161330Y88381438D01*
X27276013Y88315226D01*
X27428162Y88227382D01*
X27428167Y88227380D01*
X27428170Y88227378D01*
X27712836Y88109465D01*
X28010456Y88029718D01*
X28315940Y87989500D01*
X28315947Y87989500D01*
X29724053Y87989500D01*
X29724060Y87989500D01*
X30029544Y88029718D01*
X30327164Y88109465D01*
X30611830Y88227378D01*
X30878670Y88381438D01*
X31123117Y88569009D01*
X31340991Y88786883D01*
X31528562Y89031330D01*
X31682622Y89298170D01*
X31800535Y89582836D01*
X31880282Y89880456D01*
X31920500Y90185940D01*
X31920500Y90494060D01*
X31880282Y90799544D01*
X31800535Y91097164D01*
X31682622Y91381830D01*
X31682620Y91381833D01*
X31682618Y91381838D01*
X31627578Y91477170D01*
X31528562Y91648670D01*
X31340991Y91893117D01*
X31340986Y91893123D01*
X31123122Y92110987D01*
X31123115Y92110993D01*
X30878674Y92298559D01*
X30878673Y92298560D01*
X30878670Y92298562D01*
X30772280Y92359986D01*
X30611837Y92452619D01*
X30611826Y92452624D01*
X30327162Y92570536D01*
X30029542Y92650283D01*
X29724069Y92690499D01*
X29724066Y92690500D01*
X29724060Y92690500D01*
X28315940Y92690500D01*
X28315934Y92690500D01*
X28315930Y92690499D01*
X28010457Y92650283D01*
X27712837Y92570536D01*
X27428173Y92452624D01*
X27428162Y92452619D01*
X27161325Y92298559D01*
X26916884Y92110993D01*
X26916877Y92110987D01*
X26699013Y91893123D01*
X26699007Y91893116D01*
X26511441Y91648675D01*
X26357381Y91381838D01*
X26357376Y91381827D01*
X26239464Y91097163D01*
X26159717Y90799543D01*
X26119501Y90494070D01*
X26119500Y90494054D01*
X16712288Y90494054D01*
X16636819Y90569523D01*
X16603334Y90630846D01*
X16600500Y90657204D01*
X16600500Y96793796D01*
X16620185Y96860835D01*
X16672989Y96906590D01*
X16742147Y96916534D01*
X16805703Y96887509D01*
X16812181Y96881477D01*
X18760586Y94933072D01*
X18883072Y94810586D01*
X19023212Y94708768D01*
X19177555Y94630127D01*
X19342299Y94576598D01*
X19513389Y94549500D01*
X34442796Y94549500D01*
X34509835Y94529815D01*
X34530477Y94513181D01*
X34883181Y94160477D01*
X34916666Y94099154D01*
X34919500Y94072796D01*
X34919500Y88525022D01*
X34899815Y88457983D01*
X34883181Y88437341D01*
X34761071Y88315232D01*
X34761066Y88315226D01*
X34608368Y88105055D01*
X34490422Y87873577D01*
X34410140Y87626494D01*
X34369500Y87369903D01*
X34369500Y87110098D01*
X34410140Y86853507D01*
X34490422Y86606424D01*
X34514714Y86558750D01*
X34595303Y86400586D01*
X34608368Y86374946D01*
X34759741Y86166599D01*
X34761069Y86164771D01*
X34944771Y85981069D01*
X35154949Y85828366D01*
X35302445Y85753213D01*
X35386423Y85710423D01*
X35386425Y85710423D01*
X35386428Y85710421D01*
X35633507Y85630140D01*
X35763718Y85609517D01*
X35890098Y85589500D01*
X35890103Y85589500D01*
X36149902Y85589500D01*
X36263298Y85607461D01*
X36406493Y85630140D01*
X36653572Y85710421D01*
X36885051Y85828366D01*
X37095229Y85981069D01*
X37278931Y86164771D01*
X37431634Y86374949D01*
X37549579Y86606428D01*
X37629860Y86853507D01*
X37652539Y86996702D01*
X37670500Y87110098D01*
X37670500Y87369903D01*
X37648947Y87505979D01*
X37629860Y87626493D01*
X37549579Y87873572D01*
X37549577Y87873575D01*
X37549577Y87873577D01*
X37470018Y88029718D01*
X37431634Y88105051D01*
X37278931Y88315229D01*
X37156819Y88437341D01*
X37123334Y88498664D01*
X37120500Y88525022D01*
X37120500Y94666614D01*
X37113823Y94708766D01*
X37113823Y94708769D01*
X37093404Y94837693D01*
X37093403Y94837698D01*
X37093403Y94837700D01*
X37039873Y95002445D01*
X37039871Y95002448D01*
X37039871Y95002450D01*
X36998387Y95083867D01*
X36961232Y95156788D01*
X36859414Y95296928D01*
X36736928Y95419414D01*
X35666928Y96489414D01*
X35526788Y96591232D01*
X35372445Y96669873D01*
X35207701Y96723402D01*
X35207699Y96723403D01*
X35207698Y96723403D01*
X35076271Y96744219D01*
X35036611Y96750500D01*
X35036610Y96750500D01*
X20107204Y96750500D01*
X20040165Y96770185D01*
X20019523Y96786819D01*
X18686819Y98119523D01*
X18653334Y98180846D01*
X18650500Y98207204D01*
X18650500Y100201500D01*
X18670185Y100268539D01*
X18722989Y100314294D01*
X18774500Y100325500D01*
X20575500Y100325500D01*
X20642539Y100305815D01*
X20688294Y100253011D01*
X20699500Y100201500D01*
X20699500Y98586611D01*
X20699500Y98413389D01*
X20726598Y98242299D01*
X20780127Y98077555D01*
X20858768Y97923212D01*
X20960586Y97783072D01*
X21083072Y97660586D01*
X21223212Y97558768D01*
X21377555Y97480127D01*
X21542299Y97426598D01*
X21713389Y97399500D01*
X36942796Y97399500D01*
X37009835Y97379815D01*
X37030477Y97363181D01*
X39763181Y94630477D01*
X39796666Y94569154D01*
X39799500Y94542796D01*
X39799500Y48198352D01*
X39779815Y48131313D01*
X39727011Y48085558D01*
X39705426Y48078017D01*
X39604978Y48053037D01*
X39604976Y48053036D01*
X39439249Y47970844D01*
X39295059Y47854941D01*
X39179156Y47710751D01*
X39096964Y47545024D01*
X39096963Y47545022D01*
X39052317Y47365500D01*
X39049500Y47323952D01*
X39049500Y46176049D01*
X39052317Y46134501D01*
X39096963Y45954979D01*
X39096964Y45954977D01*
X39179156Y45789250D01*
X39295059Y45645060D01*
X39377173Y45579055D01*
X39439247Y45529158D01*
X39604979Y45446963D01*
X39784501Y45402318D01*
X39784502Y45402318D01*
X39784505Y45402317D01*
X39826046Y45399500D01*
X39826048Y45399500D01*
X42773952Y45399500D01*
X42773954Y45399500D01*
X42815495Y45402317D01*
X42995021Y45446963D01*
X43160753Y45529158D01*
X43276435Y45622148D01*
X43341019Y45648806D01*
X43354123Y45649500D01*
X45045877Y45649500D01*
X45112916Y45629815D01*
X45123562Y45622149D01*
X45239247Y45529158D01*
X45404979Y45446963D01*
X45584501Y45402318D01*
X45584502Y45402318D01*
X45584505Y45402317D01*
X45626046Y45399500D01*
X45626048Y45399500D01*
X48573952Y45399500D01*
X48573954Y45399500D01*
X48615495Y45402317D01*
X48795021Y45446963D01*
X48960753Y45529158D01*
X49104940Y45645060D01*
X49220842Y45789247D01*
X49303037Y45954979D01*
X49347683Y46134505D01*
X49350500Y46176046D01*
X49350500Y47323954D01*
X49347683Y47365495D01*
X49303037Y47545021D01*
X49220842Y47710753D01*
X49170945Y47772827D01*
X49104940Y47854941D01*
X49002785Y47937055D01*
X48960753Y47970842D01*
X48960751Y47970843D01*
X48960750Y47970844D01*
X48795023Y48053036D01*
X48795021Y48053037D01*
X48615497Y48097683D01*
X48615501Y48097683D01*
X48584339Y48099796D01*
X48573954Y48100500D01*
X45626046Y48100500D01*
X45614177Y48099696D01*
X45584500Y48097683D01*
X45404978Y48053037D01*
X45404976Y48053036D01*
X45239249Y47970844D01*
X45123565Y47877853D01*
X45058981Y47851194D01*
X45045877Y47850500D01*
X43354123Y47850500D01*
X43287084Y47870185D01*
X43276435Y47877853D01*
X43160753Y47970842D01*
X43160751Y47970843D01*
X43160750Y47970844D01*
X42995023Y48053036D01*
X42995021Y48053037D01*
X42815497Y48097683D01*
X42815501Y48097683D01*
X42784339Y48099796D01*
X42773954Y48100500D01*
X42773952Y48100500D01*
X42124500Y48100500D01*
X42057461Y48120185D01*
X42011706Y48172989D01*
X42000500Y48224500D01*
X42000500Y95136611D01*
X41975108Y95296930D01*
X41973402Y95307701D01*
X41919873Y95472445D01*
X41841232Y95626788D01*
X41739414Y95766928D01*
X41616928Y95889414D01*
X38166928Y99339414D01*
X38026788Y99441232D01*
X37872445Y99519873D01*
X37707701Y99573402D01*
X37707699Y99573403D01*
X37707698Y99573403D01*
X37576271Y99594219D01*
X37536611Y99600500D01*
X37536610Y99600500D01*
X23024500Y99600500D01*
X22957461Y99620185D01*
X22911706Y99672989D01*
X22900500Y99724500D01*
X22900500Y100232623D01*
X22920185Y100299662D01*
X22972989Y100345417D01*
X22994566Y100352956D01*
X23075021Y100372963D01*
X23240753Y100455158D01*
X23384940Y100571060D01*
X23500842Y100715247D01*
X23583037Y100880979D01*
X23627683Y101060505D01*
X23630500Y101102046D01*
X23630500Y102597954D01*
X23627683Y102639495D01*
X23583037Y102819021D01*
X23500842Y102984753D01*
X23422420Y103082313D01*
X23395762Y103146896D01*
X23408252Y103215640D01*
X23422421Y103237688D01*
X23500842Y103335247D01*
X23583037Y103500979D01*
X23627683Y103680505D01*
X23630500Y103722046D01*
X23630500Y105217954D01*
X23627683Y105259495D01*
X23620242Y105289414D01*
X23615269Y105309414D01*
X23583037Y105439021D01*
X23500842Y105604753D01*
X23454573Y105662313D01*
X23427915Y105726896D01*
X23440405Y105795640D01*
X23454574Y105817688D01*
X23500842Y105875247D01*
X23583037Y106040979D01*
X23627683Y106220505D01*
X23630500Y106262046D01*
X23630500Y107757954D01*
X23627683Y107799495D01*
X23583037Y107979021D01*
X23500842Y108144753D01*
X23454573Y108202313D01*
X23427915Y108266896D01*
X23440405Y108335640D01*
X23454574Y108357688D01*
X23500842Y108415247D01*
X23583037Y108580979D01*
X23627683Y108760505D01*
X23630500Y108802046D01*
X23630500Y110297954D01*
X23627683Y110339495D01*
X23583037Y110519021D01*
X23500842Y110684753D01*
X23454573Y110742313D01*
X23427915Y110806896D01*
X23440405Y110875640D01*
X23454574Y110897688D01*
X23500842Y110955247D01*
X23583037Y111120979D01*
X23627683Y111300505D01*
X23630500Y111342046D01*
X23630500Y112837954D01*
X23627683Y112879495D01*
X23583037Y113059021D01*
X23500842Y113224753D01*
X23454573Y113282313D01*
X23427915Y113346896D01*
X23440405Y113415640D01*
X23454574Y113437688D01*
X23500842Y113495247D01*
X23583037Y113660979D01*
X23627683Y113840505D01*
X23630500Y113882046D01*
X23630500Y115377954D01*
X23627683Y115419495D01*
X23583037Y115599021D01*
X23500842Y115764753D01*
X23454573Y115822313D01*
X23427915Y115886896D01*
X23440405Y115955640D01*
X23454574Y115977688D01*
X23500842Y116035247D01*
X23583037Y116200979D01*
X23627683Y116380505D01*
X23630500Y116422046D01*
X23630500Y117917952D01*
X35169500Y117917952D01*
X35169500Y116422049D01*
X35172317Y116380501D01*
X35216963Y116200979D01*
X35216964Y116200977D01*
X35299155Y116035251D01*
X35299157Y116035248D01*
X35345426Y115977687D01*
X35372085Y115913103D01*
X35359594Y115844359D01*
X35345426Y115822313D01*
X35299157Y115764753D01*
X35299155Y115764750D01*
X35216964Y115599024D01*
X35216963Y115599022D01*
X35172317Y115419500D01*
X35169500Y115377952D01*
X35169500Y113882049D01*
X35172317Y113840501D01*
X35216963Y113660979D01*
X35216964Y113660977D01*
X35299155Y113495251D01*
X35299157Y113495248D01*
X35345426Y113437687D01*
X35372085Y113373103D01*
X35359594Y113304359D01*
X35345426Y113282313D01*
X35299157Y113224753D01*
X35299155Y113224750D01*
X35216964Y113059024D01*
X35216963Y113059022D01*
X35172317Y112879500D01*
X35169500Y112837952D01*
X35169500Y111342049D01*
X35172317Y111300501D01*
X35216963Y111120979D01*
X35216964Y111120977D01*
X35299155Y110955251D01*
X35299157Y110955248D01*
X35345426Y110897687D01*
X35372085Y110833103D01*
X35359594Y110764359D01*
X35345426Y110742313D01*
X35299157Y110684753D01*
X35299155Y110684750D01*
X35216964Y110519024D01*
X35216963Y110519022D01*
X35172317Y110339500D01*
X35169500Y110297952D01*
X35169500Y108802049D01*
X35172317Y108760501D01*
X35216963Y108580979D01*
X35216964Y108580977D01*
X35299155Y108415251D01*
X35299157Y108415248D01*
X35345426Y108357687D01*
X35372085Y108293103D01*
X35359594Y108224359D01*
X35345426Y108202313D01*
X35299157Y108144753D01*
X35299155Y108144750D01*
X35216964Y107979024D01*
X35216963Y107979022D01*
X35172317Y107799500D01*
X35169500Y107757952D01*
X35169500Y106262049D01*
X35172317Y106220501D01*
X35216963Y106040979D01*
X35216964Y106040977D01*
X35299155Y105875251D01*
X35299157Y105875248D01*
X35345426Y105817687D01*
X35372085Y105753103D01*
X35359594Y105684359D01*
X35345426Y105662313D01*
X35299157Y105604753D01*
X35299155Y105604750D01*
X35216964Y105439024D01*
X35216963Y105439022D01*
X35172317Y105259500D01*
X35169500Y105217952D01*
X35169500Y103722049D01*
X35172317Y103680501D01*
X35216963Y103500979D01*
X35216964Y103500977D01*
X35299156Y103335250D01*
X35377579Y103237688D01*
X35404238Y103173104D01*
X35391748Y103104360D01*
X35377579Y103082312D01*
X35299156Y102984751D01*
X35216964Y102819024D01*
X35216963Y102819022D01*
X35172317Y102639500D01*
X35169500Y102597952D01*
X35169500Y101102049D01*
X35172317Y101060501D01*
X35216963Y100880979D01*
X35216964Y100880977D01*
X35299156Y100715250D01*
X35299157Y100715249D01*
X35299158Y100715247D01*
X35332945Y100673215D01*
X35415059Y100571060D01*
X35497173Y100505055D01*
X35559247Y100455158D01*
X35724979Y100372963D01*
X35904501Y100328318D01*
X35904502Y100328318D01*
X35904505Y100328317D01*
X35946046Y100325500D01*
X35946048Y100325500D01*
X40093952Y100325500D01*
X40093954Y100325500D01*
X40135495Y100328317D01*
X40315021Y100372963D01*
X40480753Y100455158D01*
X40624940Y100571060D01*
X40731149Y100703188D01*
X40788493Y100743106D01*
X40827796Y100749500D01*
X43592796Y100749500D01*
X43659835Y100729815D01*
X43680477Y100713181D01*
X52063181Y92330477D01*
X52096666Y92269154D01*
X52099500Y92242796D01*
X52099500Y17837204D01*
X52079815Y17770165D01*
X52063181Y17749523D01*
X51300477Y16986819D01*
X51239154Y16953334D01*
X51212796Y16950500D01*
X49038504Y16950500D01*
X48971465Y16970185D01*
X48941857Y16996812D01*
X48854940Y17104940D01*
X48815540Y17136611D01*
X48710753Y17220842D01*
X48710751Y17220843D01*
X48710750Y17220844D01*
X48545023Y17303036D01*
X48545021Y17303037D01*
X48365497Y17347683D01*
X48365501Y17347683D01*
X48334339Y17349796D01*
X48323954Y17350500D01*
X45376046Y17350500D01*
X45364177Y17349696D01*
X45334500Y17347683D01*
X45154978Y17303037D01*
X45154976Y17303036D01*
X44989249Y17220844D01*
X44989247Y17220842D01*
X44874399Y17128523D01*
X44873565Y17127853D01*
X44808981Y17101194D01*
X44795877Y17100500D01*
X43104123Y17100500D01*
X43037084Y17120185D01*
X43026435Y17127853D01*
X42910753Y17220842D01*
X42910751Y17220843D01*
X42910750Y17220844D01*
X42745023Y17303036D01*
X42745021Y17303037D01*
X42565497Y17347683D01*
X42565501Y17347683D01*
X42534339Y17349796D01*
X42523954Y17350500D01*
X39576046Y17350500D01*
X39564177Y17349696D01*
X39534500Y17347683D01*
X39354978Y17303037D01*
X39354976Y17303036D01*
X39189249Y17220844D01*
X39045059Y17104941D01*
X38929156Y16960751D01*
X38846964Y16795024D01*
X38846963Y16795022D01*
X38802317Y16615500D01*
X38799500Y16573952D01*
X38799500Y15426049D01*
X38802317Y15384501D01*
X38846963Y15204979D01*
X38846964Y15204977D01*
X38929156Y15039250D01*
X39045059Y14895060D01*
X39125837Y14830129D01*
X39189247Y14779158D01*
X39354979Y14696963D01*
X39534501Y14652318D01*
X39534502Y14652318D01*
X39534505Y14652317D01*
X39576046Y14649500D01*
X39576048Y14649500D01*
X42523952Y14649500D01*
X42523954Y14649500D01*
X42565495Y14652317D01*
X42745021Y14696963D01*
X42910753Y14779158D01*
X43026435Y14872148D01*
X43091019Y14898806D01*
X43104123Y14899500D01*
X44795877Y14899500D01*
X44862916Y14879815D01*
X44873562Y14872149D01*
X44989247Y14779158D01*
X45154979Y14696963D01*
X45334501Y14652318D01*
X45334502Y14652318D01*
X45334505Y14652317D01*
X45376046Y14649500D01*
X45376048Y14649500D01*
X48323952Y14649500D01*
X48323954Y14649500D01*
X48365495Y14652317D01*
X48545021Y14696963D01*
X48624918Y14736589D01*
X48680012Y14749500D01*
X51806610Y14749500D01*
X51806611Y14749500D01*
X51977701Y14776598D01*
X52142445Y14830127D01*
X52296788Y14908768D01*
X52436928Y15010586D01*
X54039414Y16613072D01*
X54141232Y16753212D01*
X54219873Y16907555D01*
X54273402Y17072299D01*
X54300500Y17243389D01*
X54300500Y17416611D01*
X54300500Y92836611D01*
X54273402Y93007701D01*
X54221380Y93167807D01*
X54220318Y93171573D01*
X54141231Y93326789D01*
X54039414Y93466928D01*
X44816928Y102689414D01*
X44676788Y102791232D01*
X44522445Y102869873D01*
X44357701Y102923402D01*
X44357699Y102923403D01*
X44357698Y102923403D01*
X44226271Y102944219D01*
X44186611Y102950500D01*
X44186610Y102950500D01*
X40827796Y102950500D01*
X40825518Y102951169D01*
X40823219Y102950585D01*
X40792166Y102960963D01*
X40760757Y102970185D01*
X40758503Y102972212D01*
X40756952Y102972730D01*
X40731149Y102996812D01*
X40662421Y103082312D01*
X40635762Y103146896D01*
X40648252Y103215640D01*
X40662421Y103237688D01*
X40740842Y103335247D01*
X40823037Y103500979D01*
X40867683Y103680505D01*
X40870500Y103722046D01*
X40870500Y105217954D01*
X40867683Y105259495D01*
X40860242Y105289414D01*
X40855269Y105309414D01*
X40823037Y105439021D01*
X40740842Y105604753D01*
X40694573Y105662313D01*
X40667915Y105726896D01*
X40680405Y105795640D01*
X40694574Y105817688D01*
X40740842Y105875247D01*
X40823037Y106040979D01*
X40867683Y106220505D01*
X40870500Y106262046D01*
X40870500Y107757954D01*
X40867683Y107799495D01*
X40823037Y107979021D01*
X40740842Y108144753D01*
X40694573Y108202313D01*
X40667915Y108266896D01*
X40680405Y108335640D01*
X40694574Y108357688D01*
X40740842Y108415247D01*
X40823037Y108580979D01*
X40867683Y108760505D01*
X40870500Y108802046D01*
X40870500Y110297954D01*
X40867683Y110339495D01*
X40823037Y110519021D01*
X40740842Y110684753D01*
X40694573Y110742313D01*
X40667915Y110806896D01*
X40680405Y110875640D01*
X40694574Y110897688D01*
X40740842Y110955247D01*
X40823037Y111120979D01*
X40867683Y111300505D01*
X40870500Y111342046D01*
X40870500Y112837954D01*
X40867683Y112879495D01*
X40823037Y113059021D01*
X40740842Y113224753D01*
X40694573Y113282313D01*
X40667915Y113346896D01*
X40680405Y113415640D01*
X40694574Y113437688D01*
X40740842Y113495247D01*
X40823037Y113660979D01*
X40867683Y113840505D01*
X40870500Y113882046D01*
X40870500Y115377954D01*
X40867683Y115419495D01*
X40823037Y115599021D01*
X40740842Y115764753D01*
X40694573Y115822313D01*
X40667915Y115886896D01*
X40680405Y115955640D01*
X40694574Y115977688D01*
X40740842Y116035247D01*
X40823037Y116200979D01*
X40867683Y116380505D01*
X40870500Y116422046D01*
X40870500Y117917954D01*
X40867683Y117959495D01*
X40823037Y118139021D01*
X40740842Y118304753D01*
X40642660Y118426896D01*
X40624940Y118448941D01*
X40480752Y118564843D01*
X40476438Y118566982D01*
X40425124Y118614403D01*
X40407594Y118682038D01*
X40429413Y118748413D01*
X40432265Y118752382D01*
X40463350Y118793907D01*
X40463354Y118793914D01*
X40513596Y118928621D01*
X40513598Y118928628D01*
X40519999Y118988156D01*
X40520000Y118988173D01*
X40520000Y119460000D01*
X35520000Y119460000D01*
X35520000Y118988156D01*
X35526401Y118928628D01*
X35526403Y118928621D01*
X35576645Y118793914D01*
X35576646Y118793912D01*
X35607735Y118752383D01*
X35632152Y118686919D01*
X35617301Y118618646D01*
X35567896Y118569240D01*
X35563574Y118566990D01*
X35559252Y118564847D01*
X35559251Y118564846D01*
X35415059Y118448941D01*
X35299156Y118304751D01*
X35216964Y118139024D01*
X35216963Y118139022D01*
X35172317Y117959500D01*
X35169500Y117917952D01*
X23630500Y117917952D01*
X23630500Y117917954D01*
X23627683Y117959495D01*
X23583037Y118139021D01*
X23500842Y118304753D01*
X23454573Y118362313D01*
X23427915Y118426896D01*
X23440405Y118495640D01*
X23454574Y118517688D01*
X23500842Y118575247D01*
X23583037Y118740979D01*
X23627683Y118920505D01*
X23630500Y118962046D01*
X23630500Y120457954D01*
X23627683Y120499495D01*
X23583037Y120679021D01*
X23500842Y120844753D01*
X23454573Y120902313D01*
X23427915Y120966896D01*
X23440405Y121035640D01*
X23454574Y121057688D01*
X23500842Y121115247D01*
X23583037Y121280979D01*
X23627683Y121460505D01*
X23630500Y121502046D01*
X23630500Y122997954D01*
X23627683Y123039495D01*
X23583037Y123219021D01*
X23562511Y123260407D01*
X23550360Y123329211D01*
X23577337Y123393663D01*
X23634876Y123433298D01*
X23673600Y123439500D01*
X25175500Y123439500D01*
X25242539Y123419815D01*
X25288294Y123367011D01*
X25299500Y123315500D01*
X25299500Y121026049D01*
X25302317Y120984501D01*
X25346963Y120804979D01*
X25346964Y120804977D01*
X25429156Y120639250D01*
X25429157Y120639249D01*
X25429158Y120639247D01*
X25462485Y120597787D01*
X25545059Y120495060D01*
X25623702Y120431845D01*
X25689247Y120379158D01*
X25854979Y120296963D01*
X26034501Y120252318D01*
X26034502Y120252318D01*
X26034505Y120252317D01*
X26076046Y120249500D01*
X26076048Y120249500D01*
X28723952Y120249500D01*
X28723954Y120249500D01*
X28765495Y120252317D01*
X28945021Y120296963D01*
X29110753Y120379158D01*
X29254940Y120495060D01*
X29303354Y120555290D01*
X29360696Y120595207D01*
X29430518Y120597787D01*
X29490650Y120562209D01*
X29496632Y120555307D01*
X29545060Y120495060D01*
X29689247Y120379158D01*
X29854979Y120296963D01*
X30034501Y120252318D01*
X30034502Y120252318D01*
X30034505Y120252317D01*
X30076046Y120249500D01*
X30076048Y120249500D01*
X32723952Y120249500D01*
X32723954Y120249500D01*
X32765495Y120252317D01*
X32945021Y120296963D01*
X33110753Y120379158D01*
X33254940Y120495060D01*
X33370842Y120639247D01*
X33453037Y120804979D01*
X33497683Y120984505D01*
X33500500Y121026046D01*
X33500500Y123315500D01*
X33520185Y123382539D01*
X33572989Y123428294D01*
X33624500Y123439500D01*
X35126400Y123439500D01*
X35193439Y123419815D01*
X35239194Y123367011D01*
X35249138Y123297853D01*
X35237488Y123260406D01*
X35216964Y123219024D01*
X35216963Y123219022D01*
X35172317Y123039500D01*
X35169500Y122997952D01*
X35169500Y121502049D01*
X35172317Y121460501D01*
X35216963Y121280979D01*
X35216964Y121280977D01*
X35299156Y121115250D01*
X35415059Y120971060D01*
X35473158Y120924359D01*
X35559247Y120855158D01*
X35561436Y120854073D01*
X35563565Y120853016D01*
X35614877Y120805593D01*
X35632404Y120737958D01*
X35610583Y120671583D01*
X35607735Y120667619D01*
X35576649Y120626094D01*
X35576645Y120626087D01*
X35526403Y120491380D01*
X35526401Y120491373D01*
X35520000Y120431845D01*
X35520000Y119960000D01*
X40520000Y119960000D01*
X40520000Y120431828D01*
X40519999Y120431845D01*
X40513598Y120491373D01*
X40513596Y120491380D01*
X40463354Y120626087D01*
X40463350Y120626093D01*
X40432264Y120667620D01*
X40407847Y120733084D01*
X40422699Y120801357D01*
X40472104Y120850762D01*
X40476399Y120853000D01*
X40480753Y120855158D01*
X40624940Y120971060D01*
X40740842Y121115247D01*
X40823037Y121280979D01*
X40867683Y121460505D01*
X40870500Y121502046D01*
X40870500Y122997954D01*
X40867683Y123039495D01*
X40823037Y123219021D01*
X40802511Y123260407D01*
X40790360Y123329211D01*
X40817337Y123393663D01*
X40874876Y123433298D01*
X40913600Y123439500D01*
X59495500Y123439500D01*
X59562539Y123419815D01*
X59608294Y123367011D01*
X59619500Y123315500D01*
X59619500Y564500D01*
X59599815Y497461D01*
X59547011Y451706D01*
X59495500Y440500D01*
X694500Y440500D01*
X627461Y460185D01*
X581706Y512989D01*
X570500Y564500D01*
X570500Y123315500D01*
X590185Y123382539D01*
X642989Y123428294D01*
X694500Y123439500D01*
X17886400Y123439500D01*
X17953439Y123419815D01*
G37*
%TD.AperFunction*%
%TA.AperFunction,Conductor*%
G36*
X14655703Y89437509D02*
G01*
X14662181Y89431477D01*
X17693072Y86400586D01*
X17833212Y86298768D01*
X17906131Y86261614D01*
X17987549Y86220129D01*
X17987551Y86220129D01*
X17987554Y86220127D01*
X18152299Y86166598D01*
X18323389Y86139500D01*
X18496610Y86139500D01*
X19947916Y86139500D01*
X20014955Y86119815D01*
X20050606Y86085003D01*
X20117518Y85986141D01*
X20117521Y85986137D01*
X20117522Y85986136D01*
X20117523Y85986135D01*
X20266135Y85837523D01*
X20440187Y85719721D01*
X20440191Y85719720D01*
X20440196Y85719716D01*
X20445376Y85716887D01*
X20444539Y85715356D01*
X20492122Y85676069D01*
X20513398Y85609517D01*
X20495315Y85542028D01*
X20489751Y85533679D01*
X20408142Y85421354D01*
X20315244Y85239032D01*
X20252009Y85044418D01*
X20220000Y84842318D01*
X20220000Y84637683D01*
X20252009Y84435583D01*
X20315244Y84240969D01*
X20408141Y84058650D01*
X20408147Y84058641D01*
X20440523Y84014079D01*
X20440524Y84014078D01*
X21037037Y84610592D01*
X21054075Y84547007D01*
X21119901Y84432993D01*
X21212993Y84339901D01*
X21327007Y84274075D01*
X21390590Y84257038D01*
X20932222Y83798670D01*
X20890303Y83772959D01*
X20890931Y83771444D01*
X20886433Y83769581D01*
X20886430Y83769580D01*
X20886428Y83769579D01*
X20670006Y83659307D01*
X20654945Y83651632D01*
X20444774Y83498934D01*
X20444768Y83498929D01*
X20261069Y83315230D01*
X20251178Y83301615D01*
X20195848Y83258949D01*
X20150859Y83250500D01*
X17907204Y83250500D01*
X17840165Y83270185D01*
X17819523Y83286819D01*
X14486819Y86619523D01*
X14453334Y86680846D01*
X14450500Y86707204D01*
X14450500Y89343796D01*
X14470185Y89410835D01*
X14522989Y89456590D01*
X14592147Y89466534D01*
X14655703Y89437509D01*
G37*
%TD.AperFunction*%
%TD*%
M02*
