%TF.GenerationSoftware,KiCad,Pcbnew,9.0.2*%
%TF.CreationDate,2025-08-02T15:51:21+02:00*%
%TF.ProjectId,DuploTrainController NG,4475706c-6f54-4726-9169-6e436f6e7472,rev?*%
%TF.SameCoordinates,PX3473bc0PY1d905c0*%
%TF.FileFunction,Copper,L1,Top*%
%TF.FilePolarity,Positive*%
%FSLAX46Y46*%
G04 Gerber Fmt 4.6, Leading zero omitted, Abs format (unit mm)*
G04 Created by KiCad (PCBNEW 9.0.2) date 2025-08-02 15:51:21*
%MOMM*%
%LPD*%
G01*
G04 APERTURE LIST*
G04 Aperture macros list*
%AMRoundRect*
0 Rectangle with rounded corners*
0 $1 Rounding radius*
0 $2 $3 $4 $5 $6 $7 $8 $9 X,Y pos of 4 corners*
0 Add a 4 corners polygon primitive as box body*
4,1,4,$2,$3,$4,$5,$6,$7,$8,$9,$2,$3,0*
0 Add four circle primitives for the rounded corners*
1,1,$1+$1,$2,$3*
1,1,$1+$1,$4,$5*
1,1,$1+$1,$6,$7*
1,1,$1+$1,$8,$9*
0 Add four rect primitives between the rounded corners*
20,1,$1+$1,$2,$3,$4,$5,0*
20,1,$1+$1,$4,$5,$6,$7,0*
20,1,$1+$1,$6,$7,$8,$9,0*
20,1,$1+$1,$8,$9,$2,$3,0*%
G04 Aperture macros list end*
%TA.AperFunction,SMDPad,CuDef*%
%ADD10R,4.000000X1.348000*%
%TD*%
%TA.AperFunction,SMDPad,CuDef*%
%ADD11R,2.500000X3.500000*%
%TD*%
%TA.AperFunction,ComponentPad*%
%ADD12C,1.600000*%
%TD*%
%TA.AperFunction,ComponentPad*%
%ADD13O,3.200000X1.900000*%
%TD*%
%TA.AperFunction,ComponentPad*%
%ADD14RoundRect,0.250000X-0.550000X-0.550000X0.550000X-0.550000X0.550000X0.550000X-0.550000X0.550000X0*%
%TD*%
%TA.AperFunction,ComponentPad*%
%ADD15O,4.100000X3.000000*%
%TD*%
%TA.AperFunction,Conductor*%
%ADD16C,0.800000*%
%TD*%
G04 APERTURE END LIST*
D10*
%TO.P,U1,TX,TX*%
%TO.N,unconnected-(U1-PadTX)*%
X11480000Y-1700000D03*
%TO.P,U1,RX,RX*%
%TO.N,unconnected-(U1-PadRX)*%
X11480000Y-4240000D03*
%TO.P,U1,GP13,GPIO13*%
%TO.N,unconnected-(U1-GPIO13-PadGP13)*%
X28720000Y-9320000D03*
%TO.P,U1,GP12,GPIO12*%
%TO.N,unconnected-(U1-GPIO12-PadGP12)*%
X28720000Y-11860000D03*
%TO.P,U1,GP11,GPIO11*%
%TO.N,unconnected-(U1-GPIO11-PadGP11)*%
X28720000Y-14400000D03*
%TO.P,U1,GP10,GPIO10*%
%TO.N,unconnected-(U1-GPIO10-PadGP10)*%
X28720000Y-16940000D03*
%TO.P,U1,GP9,GPIO9*%
%TO.N,unconnected-(U1-GPIO9-PadGP9)*%
X28720000Y-19480000D03*
%TO.P,U1,GP8,GPIO8*%
%TO.N,unconnected-(U1-GPIO8-PadGP8)*%
X28720000Y-22100000D03*
%TO.P,U1,GP7,GPIO7*%
%TO.N,ADC_Buttons*%
X11480000Y-22100000D03*
%TO.P,U1,GP6,GPIO6*%
%TO.N,unconnected-(U1-GPIO6-PadGP6)*%
X11480000Y-19480000D03*
%TO.P,U1,GP5,GPIO5*%
%TO.N,ENC_1*%
X11480000Y-16940000D03*
%TO.P,U1,GP4,GPIO4*%
%TO.N,ENC_2*%
X11480000Y-14400000D03*
%TO.P,U1,GP3,GPIO3*%
%TO.N,unconnected-(U1-GPIO3-PadGP3)*%
X11480000Y-11860000D03*
%TO.P,U1,GP2,GPIO2*%
%TO.N,unconnected-(U1-GPIO2-PadGP2)*%
X11480000Y-9320000D03*
%TO.P,U1,GP1,GPIO1*%
%TO.N,unconnected-(U1-GPIO1-PadGP1)*%
X11480000Y-6780000D03*
%TO.P,U1,GND,GND*%
%TO.N,GND*%
X28720000Y-4240000D03*
D11*
%TO.P,U1,B-,B-*%
%TO.N,unconnected-(U1-PadB-)*%
X18100000Y-1100000D03*
%TO.P,U1,B+,B+*%
%TO.N,unconnected-(U1-PadB+)*%
X22100000Y-1100000D03*
D10*
%TO.P,U1,5V,5V*%
%TO.N,unconnected-(U1-Pad5V)*%
X28720000Y-1700000D03*
%TO.P,U1,3.3V,3V3*%
%TO.N,+3V3*%
X28720000Y-6780000D03*
%TD*%
D12*
%TO.P,R4,2*%
%TO.N,Net-(R4-Pad2)*%
X13350000Y-89900000D03*
%TO.P,R4,1*%
%TO.N,Net-(R3-Pad2)*%
X26050000Y-89900000D03*
%TD*%
%TO.P,R5,2*%
%TO.N,Net-(R5-Pad2)*%
X26050000Y-93950000D03*
%TO.P,R5,1*%
%TO.N,Net-(R4-Pad2)*%
X13350000Y-93950000D03*
%TD*%
D13*
%TO.P,SW6,2,2*%
%TO.N,GND*%
X34550000Y-106150000D03*
X22050000Y-106150000D03*
%TO.P,SW6,1,1*%
%TO.N,Net-(R3-Pad2)*%
X34550000Y-101150000D03*
X22050000Y-101150000D03*
%TD*%
%TO.P,SW4,2,2*%
%TO.N,GND*%
X21950000Y-72600000D03*
X34450000Y-72600000D03*
%TO.P,SW4,1,1*%
%TO.N,Net-(R4-Pad2)*%
X21950000Y-77600000D03*
X34450000Y-77600000D03*
%TD*%
%TO.P,SW3,1,1*%
%TO.N,Net-(R5-Pad2)*%
X3250000Y-101200000D03*
X15750000Y-101200000D03*
%TO.P,SW3,2,2*%
%TO.N,GND*%
X3250000Y-106200000D03*
X15750000Y-106200000D03*
%TD*%
%TO.P,SW1,1,1*%
%TO.N,Net-(R2-Pad2)*%
X3450000Y-72600000D03*
X15950000Y-72600000D03*
%TO.P,SW1,2,2*%
%TO.N,GND*%
X3450000Y-77600000D03*
X15950000Y-77600000D03*
%TD*%
D12*
%TO.P,R3,1*%
%TO.N,Net-(R2-Pad2)*%
X13350000Y-85300000D03*
%TO.P,R3,2*%
%TO.N,Net-(R3-Pad2)*%
X26050000Y-85300000D03*
%TD*%
%TO.P,R1,1*%
%TO.N,+3V3*%
X35600000Y-14400000D03*
%TO.P,R1,2*%
%TO.N,ADC_Buttons*%
X35600000Y-27100000D03*
%TD*%
D14*
%TO.P,SW5,A,A*%
%TO.N,ENC_1*%
X12220000Y-36710000D03*
D12*
%TO.P,SW5,B,B*%
%TO.N,ENC_2*%
X12220000Y-41710000D03*
%TO.P,SW5,C,C*%
%TO.N,GND*%
X12220000Y-39210000D03*
%TO.P,SW5,S1,S1*%
X26720000Y-36710000D03*
%TO.P,SW5,S2,S2*%
%TO.N,ADC_Buttons*%
X26720000Y-41710000D03*
D15*
%TO.P,SW5,SH*%
%TO.N,N/C*%
X19720000Y-33610000D03*
X19720000Y-44810000D03*
%TD*%
D12*
%TO.P,C1,1*%
%TO.N,ADC_Buttons*%
X7550000Y-26500000D03*
%TO.P,C1,2*%
%TO.N,GND*%
X7550000Y-31500000D03*
%TD*%
%TO.P,R2,1*%
%TO.N,ADC_Buttons*%
X26200000Y-65400000D03*
%TO.P,R2,2*%
%TO.N,Net-(R2-Pad2)*%
X13500000Y-65400000D03*
%TD*%
D16*
%TO.N,Net-(R3-Pad2)*%
X26050000Y-85300000D02*
X26050000Y-89900000D01*
%TO.N,Net-(R4-Pad2)*%
X21950000Y-77600000D02*
X20150000Y-79400000D01*
X20150000Y-88450000D02*
X18750000Y-89850000D01*
X20150000Y-79400000D02*
X20150000Y-88450000D01*
X18750000Y-89850000D02*
X13400000Y-89850000D01*
X13400000Y-89850000D02*
X13350000Y-89900000D01*
X21950000Y-77600000D02*
X34450000Y-77600000D01*
%TO.N,Net-(R2-Pad2)*%
X13350000Y-83250000D02*
X10500000Y-80400000D01*
X13350000Y-85300000D02*
X13350000Y-83250000D01*
X3450000Y-72600000D02*
X10350000Y-72600000D01*
X10500000Y-80400000D02*
X10500000Y-72750000D01*
X10500000Y-72750000D02*
X10350000Y-72600000D01*
X10350000Y-72600000D02*
X15950000Y-72600000D01*
X6250000Y-65400000D02*
X3600000Y-68050000D01*
X13500000Y-65400000D02*
X6250000Y-65400000D01*
X3600000Y-72450000D02*
X3450000Y-72600000D01*
X3600000Y-68050000D02*
X3600000Y-72450000D01*
%TO.N,Net-(R3-Pad2)*%
X26050000Y-89900000D02*
X29150000Y-89900000D01*
X29150000Y-89900000D02*
X34550000Y-95300000D01*
X34550000Y-95300000D02*
X34550000Y-101150000D01*
X22050000Y-101150000D02*
X34550000Y-101150000D01*
%TO.N,Net-(R5-Pad2)*%
X15750000Y-101200000D02*
X3250000Y-101200000D01*
X26050000Y-93950000D02*
X19300000Y-93950000D01*
X19300000Y-93950000D02*
X15750000Y-97500000D01*
X15750000Y-97500000D02*
X15750000Y-101200000D01*
%TO.N,Net-(R4-Pad2)*%
X13350000Y-89900000D02*
X13350000Y-93950000D01*
%TO.N,ENC_2*%
X12220000Y-41710000D02*
X5060000Y-41710000D01*
X5060000Y-41710000D02*
X2000000Y-38650000D01*
X2000000Y-38650000D02*
X2000000Y-15700000D01*
X2000000Y-15700000D02*
X3300000Y-14400000D01*
X3300000Y-14400000D02*
X12480000Y-14400000D01*
%TO.N,ADC_Buttons*%
X26200000Y-65400000D02*
X26200000Y-42230000D01*
X26200000Y-42230000D02*
X26720000Y-41710000D01*
%TO.N,ENC_1*%
X12480000Y-16940000D02*
X4910000Y-16940000D01*
X6550000Y-36700000D02*
X12210000Y-36700000D01*
X4910000Y-16940000D02*
X4200000Y-17650000D01*
X4200000Y-17650000D02*
X4200000Y-34350000D01*
X4200000Y-34350000D02*
X6550000Y-36700000D01*
X12210000Y-36700000D02*
X12220000Y-36710000D01*
%TO.N,ADC_Buttons*%
X12480000Y-22100000D02*
X8800000Y-22100000D01*
X8800000Y-22100000D02*
X7550000Y-23350000D01*
X7550000Y-23350000D02*
X7550000Y-26500000D01*
X7550000Y-26500000D02*
X35000000Y-26500000D01*
X35000000Y-26500000D02*
X35600000Y-27100000D01*
X35600000Y-27100000D02*
X35600000Y-35900000D01*
X29790000Y-41710000D02*
X26720000Y-41710000D01*
X35600000Y-35900000D02*
X29790000Y-41710000D01*
%TO.N,+3V3*%
X27720000Y-6780000D02*
X34480000Y-6780000D01*
X34480000Y-6780000D02*
X35600000Y-7900000D01*
X35600000Y-7900000D02*
X35600000Y-14400000D01*
%TD*%
%TA.AperFunction,Conductor*%
%TO.N,GND*%
G36*
X37875924Y-548379D02*
G01*
X37942894Y-568291D01*
X37988469Y-621250D01*
X37999500Y-672378D01*
X37999500Y-111575500D01*
X37979815Y-111642539D01*
X37927011Y-111688294D01*
X37875500Y-111699500D01*
X13550926Y-111699500D01*
X13550179Y-111699498D01*
X473753Y-111620723D01*
X406833Y-111600635D01*
X361397Y-111547556D01*
X350500Y-111496725D01*
X350500Y-101081995D01*
X799500Y-101081995D01*
X799500Y-101318004D01*
X799501Y-101318020D01*
X823723Y-101502010D01*
X830307Y-101552014D01*
X891394Y-101779993D01*
X981714Y-101998045D01*
X981719Y-101998056D01*
X1052677Y-102120957D01*
X1099727Y-102202450D01*
X1099729Y-102202453D01*
X1099730Y-102202454D01*
X1243406Y-102389697D01*
X1243412Y-102389704D01*
X1410295Y-102556587D01*
X1410302Y-102556593D01*
X1520306Y-102641001D01*
X1597550Y-102700273D01*
X1715350Y-102768285D01*
X1801943Y-102818280D01*
X1801948Y-102818282D01*
X1801951Y-102818284D01*
X2020007Y-102908606D01*
X2247986Y-102969693D01*
X2481989Y-103000500D01*
X2481996Y-103000500D01*
X4018004Y-103000500D01*
X4018011Y-103000500D01*
X4252014Y-102969693D01*
X4479993Y-102908606D01*
X4698049Y-102818284D01*
X4902450Y-102700273D01*
X5089699Y-102556592D01*
X5159473Y-102486817D01*
X5220794Y-102453334D01*
X5247153Y-102450500D01*
X13752847Y-102450500D01*
X13819886Y-102470185D01*
X13840523Y-102486814D01*
X13910296Y-102556587D01*
X13910303Y-102556594D01*
X14032383Y-102650269D01*
X14097550Y-102700273D01*
X14215350Y-102768285D01*
X14301943Y-102818280D01*
X14301948Y-102818282D01*
X14301951Y-102818284D01*
X14520007Y-102908606D01*
X14747986Y-102969693D01*
X14981989Y-103000500D01*
X14981996Y-103000500D01*
X16518004Y-103000500D01*
X16518011Y-103000500D01*
X16752014Y-102969693D01*
X16979993Y-102908606D01*
X17198049Y-102818284D01*
X17402450Y-102700273D01*
X17589699Y-102556592D01*
X17756592Y-102389699D01*
X17900273Y-102202450D01*
X18018284Y-101998049D01*
X18108606Y-101779993D01*
X18169693Y-101552014D01*
X18200500Y-101318011D01*
X18200500Y-101081989D01*
X18193918Y-101031995D01*
X19599500Y-101031995D01*
X19599500Y-101268004D01*
X19599501Y-101268020D01*
X19630306Y-101502010D01*
X19691394Y-101729993D01*
X19781714Y-101948045D01*
X19781719Y-101948056D01*
X19852677Y-102070957D01*
X19899727Y-102152450D01*
X19899729Y-102152453D01*
X19899730Y-102152454D01*
X20043406Y-102339697D01*
X20043412Y-102339704D01*
X20210295Y-102506587D01*
X20210302Y-102506593D01*
X20275456Y-102556587D01*
X20397550Y-102650273D01*
X20484146Y-102700269D01*
X20601943Y-102768280D01*
X20601948Y-102768282D01*
X20601951Y-102768284D01*
X20820007Y-102858606D01*
X21047986Y-102919693D01*
X21281989Y-102950500D01*
X21281996Y-102950500D01*
X22818004Y-102950500D01*
X22818011Y-102950500D01*
X23052014Y-102919693D01*
X23279993Y-102858606D01*
X23498049Y-102768284D01*
X23702450Y-102650273D01*
X23889699Y-102506592D01*
X23959473Y-102436817D01*
X24020794Y-102403334D01*
X24047153Y-102400500D01*
X32552847Y-102400500D01*
X32619886Y-102420185D01*
X32640523Y-102436814D01*
X32690528Y-102486819D01*
X32710303Y-102506594D01*
X32775465Y-102556594D01*
X32897550Y-102650273D01*
X32984146Y-102700269D01*
X33101943Y-102768280D01*
X33101948Y-102768282D01*
X33101951Y-102768284D01*
X33320007Y-102858606D01*
X33547986Y-102919693D01*
X33781989Y-102950500D01*
X33781996Y-102950500D01*
X35318004Y-102950500D01*
X35318011Y-102950500D01*
X35552014Y-102919693D01*
X35779993Y-102858606D01*
X35998049Y-102768284D01*
X36202450Y-102650273D01*
X36389699Y-102506592D01*
X36556592Y-102339699D01*
X36700273Y-102152450D01*
X36818284Y-101948049D01*
X36908606Y-101729993D01*
X36969693Y-101502014D01*
X37000500Y-101268011D01*
X37000500Y-101031989D01*
X36969693Y-100797986D01*
X36908606Y-100570007D01*
X36818284Y-100351951D01*
X36818282Y-100351948D01*
X36818280Y-100351943D01*
X36776118Y-100278918D01*
X36700273Y-100147550D01*
X36556592Y-99960301D01*
X36556587Y-99960295D01*
X36389704Y-99793412D01*
X36389697Y-99793406D01*
X36202454Y-99649730D01*
X36202453Y-99649729D01*
X36202450Y-99649727D01*
X36084652Y-99581716D01*
X35998056Y-99531719D01*
X35998049Y-99531716D01*
X35877046Y-99481594D01*
X35822643Y-99437752D01*
X35800579Y-99371458D01*
X35800500Y-99367033D01*
X35800500Y-95201577D01*
X35782586Y-95088483D01*
X35769709Y-95007174D01*
X35769708Y-95007170D01*
X35769708Y-95007169D01*
X35710391Y-94824612D01*
X35709329Y-94820847D01*
X35619523Y-94644594D01*
X35503828Y-94485354D01*
X29964646Y-88946172D01*
X29805405Y-88830476D01*
X29794208Y-88824771D01*
X29630030Y-88741117D01*
X29442826Y-88680290D01*
X29248422Y-88649500D01*
X29248417Y-88649500D01*
X27424500Y-88649500D01*
X27357461Y-88629815D01*
X27311706Y-88577011D01*
X27300500Y-88525500D01*
X27300500Y-86427122D01*
X27320185Y-86360083D01*
X27324161Y-86354265D01*
X27461634Y-86165051D01*
X27579579Y-85933572D01*
X27659860Y-85686493D01*
X27682539Y-85543298D01*
X27700500Y-85429902D01*
X27700500Y-85170097D01*
X27678947Y-85034021D01*
X27659860Y-84913507D01*
X27579579Y-84666428D01*
X27579577Y-84666425D01*
X27579577Y-84666423D01*
X27536787Y-84582445D01*
X27461634Y-84434949D01*
X27308931Y-84224771D01*
X27125229Y-84041069D01*
X26915051Y-83888366D01*
X26779573Y-83819336D01*
X26683576Y-83770422D01*
X26436493Y-83690140D01*
X26179902Y-83649500D01*
X26179897Y-83649500D01*
X25920103Y-83649500D01*
X25920098Y-83649500D01*
X25663506Y-83690140D01*
X25416423Y-83770422D01*
X25184945Y-83888368D01*
X24974774Y-84041066D01*
X24974768Y-84041071D01*
X24791071Y-84224768D01*
X24791066Y-84224774D01*
X24638368Y-84434945D01*
X24520422Y-84666423D01*
X24440140Y-84913506D01*
X24399500Y-85170097D01*
X24399500Y-85429902D01*
X24440140Y-85686493D01*
X24520422Y-85933576D01*
X24638366Y-86165051D01*
X24775819Y-86354239D01*
X24799298Y-86420043D01*
X24799500Y-86427122D01*
X24799500Y-88772877D01*
X24779815Y-88839916D01*
X24775818Y-88845762D01*
X24638368Y-89034945D01*
X24520422Y-89266423D01*
X24440140Y-89513506D01*
X24399500Y-89770097D01*
X24399500Y-90029902D01*
X24440140Y-90286493D01*
X24520422Y-90533576D01*
X24601534Y-90692764D01*
X24638366Y-90765051D01*
X24791069Y-90975229D01*
X24974771Y-91158931D01*
X25184949Y-91311634D01*
X25332445Y-91386787D01*
X25416423Y-91429577D01*
X25416425Y-91429577D01*
X25416428Y-91429579D01*
X25663507Y-91509860D01*
X25795706Y-91530797D01*
X25920098Y-91550500D01*
X25920103Y-91550500D01*
X26179902Y-91550500D01*
X26293298Y-91532539D01*
X26436493Y-91509860D01*
X26683572Y-91429579D01*
X26915051Y-91311634D01*
X27071557Y-91197925D01*
X27104238Y-91174182D01*
X27170044Y-91150702D01*
X27177123Y-91150500D01*
X28580664Y-91150500D01*
X28647703Y-91170185D01*
X28668345Y-91186819D01*
X33263181Y-95781655D01*
X33296666Y-95842978D01*
X33299500Y-95869336D01*
X33299500Y-99367033D01*
X33279815Y-99434072D01*
X33227011Y-99479827D01*
X33222954Y-99481594D01*
X33101950Y-99531716D01*
X33101943Y-99531719D01*
X32897545Y-99649730D01*
X32710303Y-99793405D01*
X32675416Y-99828293D01*
X32640526Y-99863182D01*
X32579206Y-99896666D01*
X32552847Y-99899500D01*
X24047153Y-99899500D01*
X23980114Y-99879815D01*
X23959476Y-99863185D01*
X23889699Y-99793408D01*
X23889698Y-99793407D01*
X23889696Y-99793405D01*
X23702454Y-99649730D01*
X23702453Y-99649729D01*
X23702450Y-99649727D01*
X23584652Y-99581716D01*
X23498056Y-99531719D01*
X23498045Y-99531714D01*
X23279993Y-99441394D01*
X23052010Y-99380306D01*
X22818020Y-99349501D01*
X22818017Y-99349500D01*
X22818011Y-99349500D01*
X21281989Y-99349500D01*
X21281983Y-99349500D01*
X21281979Y-99349501D01*
X21047989Y-99380306D01*
X20820006Y-99441394D01*
X20601954Y-99531714D01*
X20601943Y-99531719D01*
X20397545Y-99649730D01*
X20210302Y-99793406D01*
X20210295Y-99793412D01*
X20043412Y-99960295D01*
X20043406Y-99960302D01*
X19899730Y-100147545D01*
X19781719Y-100351943D01*
X19781714Y-100351954D01*
X19691394Y-100570006D01*
X19630306Y-100797989D01*
X19599501Y-101031979D01*
X19599500Y-101031995D01*
X18193918Y-101031995D01*
X18193917Y-101031989D01*
X18169693Y-100847989D01*
X18169693Y-100847986D01*
X18108606Y-100620007D01*
X18018284Y-100401951D01*
X18018282Y-100401948D01*
X18018280Y-100401943D01*
X17976118Y-100328918D01*
X17900273Y-100197550D01*
X17756592Y-100010301D01*
X17756587Y-100010295D01*
X17589704Y-99843412D01*
X17589697Y-99843406D01*
X17402454Y-99699730D01*
X17402453Y-99699729D01*
X17402450Y-99699727D01*
X17315853Y-99649730D01*
X17198056Y-99581719D01*
X17198049Y-99581716D01*
X17077046Y-99531594D01*
X17022643Y-99487752D01*
X17000579Y-99421458D01*
X17000500Y-99417033D01*
X17000500Y-98069336D01*
X17020185Y-98002297D01*
X17036819Y-97981655D01*
X19781655Y-95236819D01*
X19842978Y-95203334D01*
X19869336Y-95200500D01*
X24922877Y-95200500D01*
X24989916Y-95220185D01*
X24995762Y-95224182D01*
X25117992Y-95312987D01*
X25184949Y-95361634D01*
X25332445Y-95436787D01*
X25416423Y-95479577D01*
X25416425Y-95479577D01*
X25416428Y-95479579D01*
X25663507Y-95559860D01*
X25795706Y-95580797D01*
X25920098Y-95600500D01*
X25920103Y-95600500D01*
X26179902Y-95600500D01*
X26293298Y-95582539D01*
X26436493Y-95559860D01*
X26683572Y-95479579D01*
X26915051Y-95361634D01*
X27125229Y-95208931D01*
X27308931Y-95025229D01*
X27461634Y-94815051D01*
X27579579Y-94583572D01*
X27659860Y-94336493D01*
X27682539Y-94193298D01*
X27700500Y-94079902D01*
X27700500Y-93820097D01*
X27678947Y-93684021D01*
X27659860Y-93563507D01*
X27579579Y-93316428D01*
X27579577Y-93316425D01*
X27579577Y-93316423D01*
X27536787Y-93232445D01*
X27461634Y-93084949D01*
X27308931Y-92874771D01*
X27125229Y-92691069D01*
X26915051Y-92538366D01*
X26842764Y-92501534D01*
X26683576Y-92420422D01*
X26436493Y-92340140D01*
X26179902Y-92299500D01*
X26179897Y-92299500D01*
X25920103Y-92299500D01*
X25920098Y-92299500D01*
X25663506Y-92340140D01*
X25416423Y-92420422D01*
X25184945Y-92538368D01*
X24995762Y-92675818D01*
X24929956Y-92699298D01*
X24922877Y-92699500D01*
X19201578Y-92699500D01*
X19007173Y-92730290D01*
X18819969Y-92791117D01*
X18644594Y-92880476D01*
X18553741Y-92946485D01*
X18485354Y-92996172D01*
X18485352Y-92996174D01*
X18485351Y-92996174D01*
X14796174Y-96685351D01*
X14796174Y-96685352D01*
X14796172Y-96685354D01*
X14746485Y-96753741D01*
X14680476Y-96844594D01*
X14590669Y-97020851D01*
X14589608Y-97024612D01*
X14530291Y-97207169D01*
X14530291Y-97207172D01*
X14499500Y-97401577D01*
X14499500Y-99417033D01*
X14479815Y-99484072D01*
X14427011Y-99529827D01*
X14422954Y-99531594D01*
X14301950Y-99581716D01*
X14301943Y-99581719D01*
X14097545Y-99699730D01*
X13910303Y-99843405D01*
X13890528Y-99863181D01*
X13840526Y-99913182D01*
X13779206Y-99946666D01*
X13752847Y-99949500D01*
X5247153Y-99949500D01*
X5180114Y-99929815D01*
X5159476Y-99913185D01*
X5089699Y-99843408D01*
X5089698Y-99843407D01*
X5089696Y-99843405D01*
X4902454Y-99699730D01*
X4902453Y-99699729D01*
X4902450Y-99699727D01*
X4815853Y-99649730D01*
X4698056Y-99581719D01*
X4698045Y-99581714D01*
X4479993Y-99491394D01*
X4443419Y-99481594D01*
X4252014Y-99430307D01*
X4252013Y-99430306D01*
X4252010Y-99430306D01*
X4018020Y-99399501D01*
X4018017Y-99399500D01*
X4018011Y-99399500D01*
X2481989Y-99399500D01*
X2481983Y-99399500D01*
X2481979Y-99399501D01*
X2247989Y-99430306D01*
X2020006Y-99491394D01*
X1801954Y-99581714D01*
X1801943Y-99581719D01*
X1597545Y-99699730D01*
X1410302Y-99843406D01*
X1410295Y-99843412D01*
X1243412Y-100010295D01*
X1243406Y-100010302D01*
X1099730Y-100197545D01*
X981719Y-100401943D01*
X981714Y-100401954D01*
X891394Y-100620006D01*
X830306Y-100847989D01*
X799501Y-101081979D01*
X799500Y-101081995D01*
X350500Y-101081995D01*
X350500Y-89770097D01*
X11699500Y-89770097D01*
X11699500Y-90029902D01*
X11740140Y-90286493D01*
X11820422Y-90533576D01*
X11938366Y-90765051D01*
X12075819Y-90954239D01*
X12099298Y-91020043D01*
X12099500Y-91027122D01*
X12099500Y-92822877D01*
X12079815Y-92889916D01*
X12075818Y-92895762D01*
X11938368Y-93084945D01*
X11820422Y-93316423D01*
X11740140Y-93563506D01*
X11699500Y-93820097D01*
X11699500Y-94079902D01*
X11740140Y-94336493D01*
X11820422Y-94583576D01*
X11901534Y-94742764D01*
X11938366Y-94815051D01*
X12091069Y-95025229D01*
X12274771Y-95208931D01*
X12484949Y-95361634D01*
X12632445Y-95436787D01*
X12716423Y-95479577D01*
X12716425Y-95479577D01*
X12716428Y-95479579D01*
X12963507Y-95559860D01*
X13095706Y-95580797D01*
X13220098Y-95600500D01*
X13220103Y-95600500D01*
X13479902Y-95600500D01*
X13593298Y-95582539D01*
X13736493Y-95559860D01*
X13983572Y-95479579D01*
X14215051Y-95361634D01*
X14425229Y-95208931D01*
X14608931Y-95025229D01*
X14761634Y-94815051D01*
X14879579Y-94583572D01*
X14959860Y-94336493D01*
X14982539Y-94193298D01*
X15000500Y-94079902D01*
X15000500Y-93820097D01*
X14978947Y-93684021D01*
X14959860Y-93563507D01*
X14879579Y-93316428D01*
X14879577Y-93316425D01*
X14879577Y-93316423D01*
X14836787Y-93232445D01*
X14761634Y-93084949D01*
X14624182Y-92895762D01*
X14600702Y-92829956D01*
X14600500Y-92822877D01*
X14600500Y-91224500D01*
X14620185Y-91157461D01*
X14672989Y-91111706D01*
X14724500Y-91100500D01*
X18848422Y-91100500D01*
X19042826Y-91069709D01*
X19230026Y-91008884D01*
X19405405Y-90919524D01*
X19564646Y-90803828D01*
X21103828Y-89264646D01*
X21219524Y-89105405D01*
X21308884Y-88930026D01*
X21369709Y-88742826D01*
X21369980Y-88741116D01*
X21400500Y-88548422D01*
X21400500Y-79969336D01*
X21420185Y-79902297D01*
X21436819Y-79881655D01*
X21881655Y-79436819D01*
X21942978Y-79403334D01*
X21969336Y-79400500D01*
X22718004Y-79400500D01*
X22718011Y-79400500D01*
X22952014Y-79369693D01*
X23179993Y-79308606D01*
X23398049Y-79218284D01*
X23602450Y-79100273D01*
X23789699Y-78956592D01*
X23859473Y-78886817D01*
X23920794Y-78853334D01*
X23947153Y-78850500D01*
X32452847Y-78850500D01*
X32519886Y-78870185D01*
X32540523Y-78886814D01*
X32578321Y-78924612D01*
X32610303Y-78956594D01*
X32748890Y-79062935D01*
X32797550Y-79100273D01*
X32928918Y-79176118D01*
X33001943Y-79218280D01*
X33001948Y-79218282D01*
X33001951Y-79218284D01*
X33220007Y-79308606D01*
X33447986Y-79369693D01*
X33681989Y-79400500D01*
X33681996Y-79400500D01*
X35218004Y-79400500D01*
X35218011Y-79400500D01*
X35452014Y-79369693D01*
X35679993Y-79308606D01*
X35898049Y-79218284D01*
X36102450Y-79100273D01*
X36289699Y-78956592D01*
X36456592Y-78789699D01*
X36600273Y-78602450D01*
X36718284Y-78398049D01*
X36808606Y-78179993D01*
X36869693Y-77952014D01*
X36900500Y-77718011D01*
X36900500Y-77481989D01*
X36869693Y-77247986D01*
X36808606Y-77020007D01*
X36718284Y-76801951D01*
X36718282Y-76801948D01*
X36718280Y-76801943D01*
X36676118Y-76728918D01*
X36600273Y-76597550D01*
X36456592Y-76410301D01*
X36456587Y-76410295D01*
X36289704Y-76243412D01*
X36289697Y-76243406D01*
X36102454Y-76099730D01*
X36102453Y-76099729D01*
X36102450Y-76099727D01*
X36020957Y-76052677D01*
X35898056Y-75981719D01*
X35898045Y-75981714D01*
X35679993Y-75891394D01*
X35452010Y-75830306D01*
X35218020Y-75799501D01*
X35218017Y-75799500D01*
X35218011Y-75799500D01*
X33681989Y-75799500D01*
X33681983Y-75799500D01*
X33681979Y-75799501D01*
X33447989Y-75830306D01*
X33220006Y-75891394D01*
X33001954Y-75981714D01*
X33001943Y-75981719D01*
X32797545Y-76099730D01*
X32610303Y-76243405D01*
X32575416Y-76278293D01*
X32540526Y-76313182D01*
X32479206Y-76346666D01*
X32452847Y-76349500D01*
X23947153Y-76349500D01*
X23880114Y-76329815D01*
X23859476Y-76313185D01*
X23789699Y-76243408D01*
X23789698Y-76243407D01*
X23789696Y-76243405D01*
X23602454Y-76099730D01*
X23602453Y-76099729D01*
X23602450Y-76099727D01*
X23520957Y-76052677D01*
X23398056Y-75981719D01*
X23398045Y-75981714D01*
X23179993Y-75891394D01*
X22952010Y-75830306D01*
X22718020Y-75799501D01*
X22718017Y-75799500D01*
X22718011Y-75799500D01*
X21181989Y-75799500D01*
X21181983Y-75799500D01*
X21181979Y-75799501D01*
X20947989Y-75830306D01*
X20720006Y-75891394D01*
X20501954Y-75981714D01*
X20501943Y-75981719D01*
X20297545Y-76099730D01*
X20110302Y-76243406D01*
X20110295Y-76243412D01*
X19943412Y-76410295D01*
X19943406Y-76410302D01*
X19799730Y-76597545D01*
X19681719Y-76801943D01*
X19681714Y-76801954D01*
X19591394Y-77020006D01*
X19530306Y-77247989D01*
X19499501Y-77481979D01*
X19499500Y-77481995D01*
X19499500Y-77718004D01*
X19499501Y-77718020D01*
X19530306Y-77952012D01*
X19575007Y-78118837D01*
X19573344Y-78188687D01*
X19542913Y-78238611D01*
X19196175Y-78585350D01*
X19196174Y-78585351D01*
X19196172Y-78585354D01*
X19183751Y-78602450D01*
X19080476Y-78744594D01*
X18990669Y-78920851D01*
X18989608Y-78924612D01*
X18930291Y-79107169D01*
X18930291Y-79107172D01*
X18899500Y-79301577D01*
X18899500Y-87880664D01*
X18879815Y-87947703D01*
X18863181Y-87968345D01*
X18268345Y-88563181D01*
X18207022Y-88596666D01*
X18180664Y-88599500D01*
X14408304Y-88599500D01*
X14341265Y-88579815D01*
X14335419Y-88575818D01*
X14215054Y-88488368D01*
X14215053Y-88488367D01*
X14215051Y-88488366D01*
X14142764Y-88451534D01*
X13983576Y-88370422D01*
X13736493Y-88290140D01*
X13479902Y-88249500D01*
X13479897Y-88249500D01*
X13220103Y-88249500D01*
X13220098Y-88249500D01*
X12963506Y-88290140D01*
X12716423Y-88370422D01*
X12484945Y-88488368D01*
X12274774Y-88641066D01*
X12274768Y-88641071D01*
X12091071Y-88824768D01*
X12091066Y-88824774D01*
X11938368Y-89034945D01*
X11820422Y-89266423D01*
X11740140Y-89513506D01*
X11699500Y-89770097D01*
X350500Y-89770097D01*
X350500Y-72481995D01*
X999500Y-72481995D01*
X999500Y-72718004D01*
X999501Y-72718020D01*
X1030306Y-72952010D01*
X1091394Y-73179993D01*
X1181714Y-73398045D01*
X1181719Y-73398056D01*
X1252677Y-73520957D01*
X1299727Y-73602450D01*
X1299729Y-73602453D01*
X1299730Y-73602454D01*
X1443406Y-73789697D01*
X1443412Y-73789704D01*
X1610295Y-73956587D01*
X1610302Y-73956593D01*
X1633639Y-73974500D01*
X1797550Y-74100273D01*
X1928918Y-74176118D01*
X2001943Y-74218280D01*
X2001948Y-74218282D01*
X2001951Y-74218284D01*
X2220007Y-74308606D01*
X2447986Y-74369693D01*
X2681989Y-74400500D01*
X2681996Y-74400500D01*
X4218004Y-74400500D01*
X4218011Y-74400500D01*
X4452014Y-74369693D01*
X4679993Y-74308606D01*
X4898049Y-74218284D01*
X5102450Y-74100273D01*
X5289699Y-73956592D01*
X5359473Y-73886817D01*
X5420794Y-73853334D01*
X5447153Y-73850500D01*
X9125500Y-73850500D01*
X9192539Y-73870185D01*
X9238294Y-73922989D01*
X9249500Y-73974500D01*
X9249500Y-80498422D01*
X9280290Y-80692826D01*
X9341117Y-80880030D01*
X9430476Y-81055405D01*
X9546172Y-81214646D01*
X9546174Y-81214648D01*
X12063181Y-83731655D01*
X12096666Y-83792978D01*
X12099500Y-83819336D01*
X12099500Y-84172877D01*
X12079815Y-84239916D01*
X12075818Y-84245762D01*
X11938368Y-84434945D01*
X11820422Y-84666423D01*
X11740140Y-84913506D01*
X11699500Y-85170097D01*
X11699500Y-85429902D01*
X11740140Y-85686493D01*
X11820422Y-85933576D01*
X11901534Y-86092764D01*
X11938366Y-86165051D01*
X12091069Y-86375229D01*
X12274771Y-86558931D01*
X12484949Y-86711634D01*
X12632445Y-86786787D01*
X12716423Y-86829577D01*
X12716425Y-86829577D01*
X12716428Y-86829579D01*
X12963507Y-86909860D01*
X13095706Y-86930797D01*
X13220098Y-86950500D01*
X13220103Y-86950500D01*
X13479902Y-86950500D01*
X13593298Y-86932539D01*
X13736493Y-86909860D01*
X13983572Y-86829579D01*
X14215051Y-86711634D01*
X14425229Y-86558931D01*
X14608931Y-86375229D01*
X14761634Y-86165051D01*
X14879579Y-85933572D01*
X14959860Y-85686493D01*
X14982539Y-85543298D01*
X15000500Y-85429902D01*
X15000500Y-85170097D01*
X14978947Y-85034021D01*
X14959860Y-84913507D01*
X14879579Y-84666428D01*
X14879577Y-84666425D01*
X14879577Y-84666423D01*
X14836787Y-84582445D01*
X14761634Y-84434949D01*
X14624182Y-84245762D01*
X14600702Y-84179956D01*
X14600500Y-84172877D01*
X14600500Y-83151577D01*
X14582586Y-83038483D01*
X14569709Y-82957174D01*
X14569708Y-82957170D01*
X14569708Y-82957169D01*
X14510391Y-82774612D01*
X14509329Y-82770847D01*
X14419523Y-82594594D01*
X14303829Y-82435355D01*
X11786819Y-79918345D01*
X11753334Y-79857022D01*
X11750500Y-79830664D01*
X11750500Y-73974500D01*
X11770185Y-73907461D01*
X11822989Y-73861706D01*
X11874500Y-73850500D01*
X13952847Y-73850500D01*
X14019886Y-73870185D01*
X14040523Y-73886814D01*
X14076698Y-73922989D01*
X14110303Y-73956594D01*
X14133639Y-73974500D01*
X14297550Y-74100273D01*
X14428918Y-74176118D01*
X14501943Y-74218280D01*
X14501948Y-74218282D01*
X14501951Y-74218284D01*
X14720007Y-74308606D01*
X14947986Y-74369693D01*
X15181989Y-74400500D01*
X15181996Y-74400500D01*
X16718004Y-74400500D01*
X16718011Y-74400500D01*
X16952014Y-74369693D01*
X17179993Y-74308606D01*
X17398049Y-74218284D01*
X17602450Y-74100273D01*
X17789699Y-73956592D01*
X17956592Y-73789699D01*
X18100273Y-73602450D01*
X18218284Y-73398049D01*
X18308606Y-73179993D01*
X18369693Y-72952014D01*
X18400500Y-72718011D01*
X18400500Y-72481989D01*
X18369693Y-72247986D01*
X18308606Y-72020007D01*
X18218284Y-71801951D01*
X18218282Y-71801948D01*
X18218280Y-71801943D01*
X18176118Y-71728918D01*
X18100273Y-71597550D01*
X17956592Y-71410301D01*
X17956587Y-71410295D01*
X17789704Y-71243412D01*
X17789697Y-71243406D01*
X17602454Y-71099730D01*
X17602453Y-71099729D01*
X17602450Y-71099727D01*
X17520957Y-71052677D01*
X17398056Y-70981719D01*
X17398045Y-70981714D01*
X17179993Y-70891394D01*
X17142400Y-70881321D01*
X16952014Y-70830307D01*
X16952013Y-70830306D01*
X16952010Y-70830306D01*
X16718020Y-70799501D01*
X16718017Y-70799500D01*
X16718011Y-70799500D01*
X15181989Y-70799500D01*
X15181983Y-70799500D01*
X15181979Y-70799501D01*
X14947989Y-70830306D01*
X14720006Y-70891394D01*
X14501954Y-70981714D01*
X14501943Y-70981719D01*
X14297545Y-71099730D01*
X14110303Y-71243405D01*
X14075416Y-71278293D01*
X14040526Y-71313182D01*
X13979206Y-71346666D01*
X13952847Y-71349500D01*
X5447153Y-71349500D01*
X5380114Y-71329815D01*
X5359476Y-71313185D01*
X5289699Y-71243408D01*
X5289698Y-71243407D01*
X5289696Y-71243405D01*
X5102457Y-71099732D01*
X5102455Y-71099730D01*
X5102450Y-71099727D01*
X4993548Y-71036852D01*
X4912499Y-70990058D01*
X4864284Y-70939490D01*
X4850500Y-70882671D01*
X4850500Y-68619336D01*
X4870185Y-68552297D01*
X4886819Y-68531655D01*
X6731655Y-66686819D01*
X6792978Y-66653334D01*
X6819336Y-66650500D01*
X12372877Y-66650500D01*
X12439916Y-66670185D01*
X12445762Y-66674182D01*
X12567992Y-66762987D01*
X12634949Y-66811634D01*
X12782445Y-66886787D01*
X12866423Y-66929577D01*
X12866425Y-66929577D01*
X12866428Y-66929579D01*
X13113507Y-67009860D01*
X13245706Y-67030797D01*
X13370098Y-67050500D01*
X13370103Y-67050500D01*
X13629902Y-67050500D01*
X13743298Y-67032539D01*
X13886493Y-67009860D01*
X14133572Y-66929579D01*
X14365051Y-66811634D01*
X14575229Y-66658931D01*
X14758931Y-66475229D01*
X14911634Y-66265051D01*
X15029579Y-66033572D01*
X15109860Y-65786493D01*
X15132539Y-65643298D01*
X15150500Y-65529902D01*
X15150500Y-65270097D01*
X15128947Y-65134021D01*
X15109860Y-65013507D01*
X15029579Y-64766428D01*
X15029577Y-64766425D01*
X15029577Y-64766423D01*
X14986787Y-64682445D01*
X14911634Y-64534949D01*
X14758931Y-64324771D01*
X14575229Y-64141069D01*
X14365051Y-63988366D01*
X14292764Y-63951534D01*
X14133576Y-63870422D01*
X13886493Y-63790140D01*
X13629902Y-63749500D01*
X13629897Y-63749500D01*
X13370103Y-63749500D01*
X13370098Y-63749500D01*
X13113506Y-63790140D01*
X12866423Y-63870422D01*
X12634945Y-63988368D01*
X12445762Y-64125818D01*
X12379956Y-64149298D01*
X12372877Y-64149500D01*
X6151578Y-64149500D01*
X5957173Y-64180290D01*
X5769969Y-64241117D01*
X5594594Y-64330476D01*
X5503741Y-64396485D01*
X5435354Y-64446172D01*
X5435352Y-64446174D01*
X5435351Y-64446174D01*
X2646174Y-67235351D01*
X2646174Y-67235352D01*
X2646172Y-67235354D01*
X2596485Y-67303741D01*
X2530476Y-67394594D01*
X2440669Y-67570851D01*
X2439608Y-67574612D01*
X2380291Y-67757169D01*
X2380291Y-67757172D01*
X2349500Y-67951577D01*
X2349500Y-70761547D01*
X2329815Y-70828586D01*
X2277011Y-70874341D01*
X2257596Y-70881321D01*
X2220010Y-70891392D01*
X2001954Y-70981714D01*
X2001943Y-70981719D01*
X1797545Y-71099730D01*
X1610302Y-71243406D01*
X1610295Y-71243412D01*
X1443412Y-71410295D01*
X1443406Y-71410302D01*
X1299730Y-71597545D01*
X1181719Y-71801943D01*
X1181714Y-71801954D01*
X1091394Y-72020006D01*
X1030306Y-72247989D01*
X999501Y-72481979D01*
X999500Y-72481995D01*
X350500Y-72481995D01*
X350500Y-44655946D01*
X16819500Y-44655946D01*
X16819500Y-44964053D01*
X16819501Y-44964069D01*
X16859717Y-45269542D01*
X16939464Y-45567162D01*
X17057376Y-45851826D01*
X17057381Y-45851837D01*
X17150014Y-46012280D01*
X17211438Y-46118670D01*
X17211440Y-46118673D01*
X17211441Y-46118674D01*
X17399007Y-46363115D01*
X17399013Y-46363122D01*
X17616877Y-46580986D01*
X17616883Y-46580991D01*
X17861330Y-46768562D01*
X18032830Y-46867578D01*
X18128162Y-46922618D01*
X18128167Y-46922620D01*
X18128170Y-46922622D01*
X18412836Y-47040535D01*
X18710456Y-47120282D01*
X19015940Y-47160500D01*
X19015947Y-47160500D01*
X20424053Y-47160500D01*
X20424060Y-47160500D01*
X20729544Y-47120282D01*
X21027164Y-47040535D01*
X21311830Y-46922622D01*
X21578670Y-46768562D01*
X21823117Y-46580991D01*
X22040991Y-46363117D01*
X22228562Y-46118670D01*
X22382622Y-45851830D01*
X22500535Y-45567164D01*
X22580282Y-45269544D01*
X22620500Y-44964060D01*
X22620500Y-44655940D01*
X22580282Y-44350456D01*
X22500535Y-44052836D01*
X22382622Y-43768170D01*
X22382620Y-43768167D01*
X22382618Y-43768162D01*
X22327578Y-43672830D01*
X22228562Y-43501330D01*
X22089314Y-43319859D01*
X22040992Y-43256884D01*
X22040986Y-43256877D01*
X21823122Y-43039013D01*
X21823115Y-43039007D01*
X21578674Y-42851441D01*
X21578673Y-42851440D01*
X21578670Y-42851438D01*
X21454111Y-42779524D01*
X21311837Y-42697381D01*
X21311826Y-42697376D01*
X21027162Y-42579464D01*
X20729542Y-42499717D01*
X20424069Y-42459501D01*
X20424066Y-42459500D01*
X20424060Y-42459500D01*
X19015940Y-42459500D01*
X19015934Y-42459500D01*
X19015930Y-42459501D01*
X18710457Y-42499717D01*
X18412837Y-42579464D01*
X18128173Y-42697376D01*
X18128162Y-42697381D01*
X17861325Y-42851441D01*
X17616884Y-43039007D01*
X17616877Y-43039013D01*
X17399013Y-43256877D01*
X17399007Y-43256884D01*
X17211441Y-43501325D01*
X17057381Y-43768162D01*
X17057376Y-43768173D01*
X16939464Y-44052837D01*
X16859717Y-44350457D01*
X16819501Y-44655930D01*
X16819500Y-44655946D01*
X350500Y-44655946D01*
X350500Y-674500D01*
X370185Y-607461D01*
X422989Y-561706D01*
X474500Y-550500D01*
X8566562Y-550500D01*
X8633601Y-570185D01*
X8679356Y-622989D01*
X8689300Y-692147D01*
X8679191Y-724638D01*
X8679281Y-724671D01*
X8678632Y-726437D01*
X8677650Y-729594D01*
X8676964Y-730976D01*
X8676963Y-730978D01*
X8632317Y-910500D01*
X8629500Y-952048D01*
X8629500Y-2447951D01*
X8632317Y-2489499D01*
X8676963Y-2669021D01*
X8676964Y-2669023D01*
X8759155Y-2834749D01*
X8759157Y-2834752D01*
X8805426Y-2892313D01*
X8832085Y-2956897D01*
X8819594Y-3025641D01*
X8805426Y-3047687D01*
X8759157Y-3105247D01*
X8759155Y-3105250D01*
X8676964Y-3270976D01*
X8676963Y-3270978D01*
X8632317Y-3450500D01*
X8629500Y-3492048D01*
X8629500Y-4987951D01*
X8632317Y-5029499D01*
X8676963Y-5209021D01*
X8676964Y-5209023D01*
X8759155Y-5374749D01*
X8759157Y-5374752D01*
X8805426Y-5432313D01*
X8832085Y-5496897D01*
X8819594Y-5565641D01*
X8805426Y-5587687D01*
X8759157Y-5645247D01*
X8759155Y-5645250D01*
X8676964Y-5810976D01*
X8676963Y-5810978D01*
X8632317Y-5990500D01*
X8629500Y-6032048D01*
X8629500Y-7527951D01*
X8632317Y-7569499D01*
X8676963Y-7749021D01*
X8676964Y-7749023D01*
X8759155Y-7914749D01*
X8759157Y-7914752D01*
X8805426Y-7972313D01*
X8832085Y-8036897D01*
X8819594Y-8105641D01*
X8805426Y-8127687D01*
X8759157Y-8185247D01*
X8759155Y-8185250D01*
X8676964Y-8350976D01*
X8676963Y-8350978D01*
X8632317Y-8530500D01*
X8629500Y-8572048D01*
X8629500Y-10067951D01*
X8632317Y-10109499D01*
X8676963Y-10289021D01*
X8676964Y-10289023D01*
X8759155Y-10454749D01*
X8759157Y-10454752D01*
X8805426Y-10512313D01*
X8832085Y-10576897D01*
X8819594Y-10645641D01*
X8805426Y-10667687D01*
X8759157Y-10725247D01*
X8759155Y-10725250D01*
X8676964Y-10890976D01*
X8676963Y-10890978D01*
X8632317Y-11070500D01*
X8629500Y-11112048D01*
X8629500Y-12607951D01*
X8632317Y-12649499D01*
X8676963Y-12829021D01*
X8676964Y-12829023D01*
X8747083Y-12970406D01*
X8759235Y-13039211D01*
X8732258Y-13103663D01*
X8674719Y-13143298D01*
X8635995Y-13149500D01*
X3201578Y-13149500D01*
X3007173Y-13180290D01*
X2819969Y-13241117D01*
X2644594Y-13330476D01*
X2553742Y-13396484D01*
X2485355Y-13446171D01*
X2485353Y-13446173D01*
X2485352Y-13446173D01*
X1046174Y-14885351D01*
X1046174Y-14885352D01*
X1046172Y-14885354D01*
X996485Y-14953741D01*
X930476Y-15044594D01*
X840669Y-15220851D01*
X839608Y-15224612D01*
X780291Y-15407169D01*
X780291Y-15407172D01*
X749500Y-15601577D01*
X749500Y-38748422D01*
X780290Y-38942826D01*
X841117Y-39130030D01*
X930476Y-39305405D01*
X1046172Y-39464646D01*
X4106172Y-42524646D01*
X4245354Y-42663828D01*
X4404595Y-42779524D01*
X4487455Y-42821743D01*
X4579970Y-42868882D01*
X4579972Y-42868882D01*
X4579975Y-42868884D01*
X4680317Y-42901487D01*
X4767173Y-42929709D01*
X4961578Y-42960500D01*
X4961583Y-42960500D01*
X4961584Y-42960500D01*
X5158417Y-42960500D01*
X11092877Y-42960500D01*
X11159916Y-42980185D01*
X11165762Y-42984182D01*
X11241225Y-43039009D01*
X11354949Y-43121634D01*
X11489499Y-43190191D01*
X11586423Y-43239577D01*
X11586425Y-43239577D01*
X11586428Y-43239579D01*
X11833507Y-43319860D01*
X11965706Y-43340797D01*
X12090098Y-43360500D01*
X12090103Y-43360500D01*
X12349902Y-43360500D01*
X12463298Y-43342539D01*
X12606493Y-43319860D01*
X12853572Y-43239579D01*
X13085051Y-43121634D01*
X13295229Y-42968931D01*
X13478931Y-42785229D01*
X13631634Y-42575051D01*
X13749579Y-42343572D01*
X13829860Y-42096493D01*
X13855093Y-41937174D01*
X13870500Y-41839902D01*
X13870500Y-41580097D01*
X13848947Y-41444021D01*
X13829860Y-41323507D01*
X13749579Y-41076428D01*
X13749577Y-41076425D01*
X13749577Y-41076423D01*
X13706787Y-40992445D01*
X13631634Y-40844949D01*
X13478931Y-40634771D01*
X13295229Y-40451069D01*
X13274238Y-40435818D01*
X13085054Y-40298368D01*
X13085053Y-40298367D01*
X13085051Y-40298366D01*
X13012764Y-40261534D01*
X12853576Y-40180422D01*
X12606493Y-40100140D01*
X12349902Y-40059500D01*
X12349897Y-40059500D01*
X12090103Y-40059500D01*
X12090098Y-40059500D01*
X11833506Y-40100140D01*
X11586423Y-40180422D01*
X11354945Y-40298368D01*
X11165762Y-40435818D01*
X11099956Y-40459298D01*
X11092877Y-40459500D01*
X5629336Y-40459500D01*
X5562297Y-40439815D01*
X5541655Y-40423181D01*
X3286819Y-38168345D01*
X3253334Y-38107022D01*
X3250500Y-38080664D01*
X3250500Y-35468336D01*
X3270185Y-35401297D01*
X3322989Y-35355542D01*
X3392147Y-35345598D01*
X3455703Y-35374623D01*
X3462181Y-35380655D01*
X5735354Y-37653828D01*
X5894595Y-37769524D01*
X5977454Y-37811742D01*
X6069969Y-37858882D01*
X6069971Y-37858882D01*
X6069974Y-37858884D01*
X6170318Y-37891487D01*
X6257173Y-37919709D01*
X6451578Y-37950500D01*
X6451583Y-37950500D01*
X6451584Y-37950500D01*
X6648417Y-37950500D01*
X10752795Y-37950500D01*
X10819834Y-37970185D01*
X10840476Y-37986818D01*
X10966135Y-38112477D01*
X11140187Y-38230279D01*
X11140189Y-38230280D01*
X11140191Y-38230281D01*
X11268987Y-38285435D01*
X11333388Y-38313013D01*
X11333396Y-38313014D01*
X11333397Y-38313015D01*
X11538749Y-38357687D01*
X11538750Y-38357687D01*
X11538755Y-38357688D01*
X11585962Y-38360500D01*
X11585973Y-38360500D01*
X12854027Y-38360500D01*
X12854038Y-38360500D01*
X12901245Y-38357688D01*
X13106612Y-38313013D01*
X13299813Y-38230279D01*
X13473865Y-38112477D01*
X13622477Y-37963865D01*
X13740279Y-37789813D01*
X13823013Y-37596612D01*
X13867688Y-37391245D01*
X13870500Y-37344038D01*
X13870500Y-36075962D01*
X13867688Y-36028755D01*
X13823013Y-35823388D01*
X13740279Y-35630187D01*
X13622477Y-35456135D01*
X13473865Y-35307523D01*
X13299813Y-35189721D01*
X13299811Y-35189720D01*
X13299808Y-35189718D01*
X13106613Y-35106987D01*
X13106602Y-35106984D01*
X12901250Y-35062312D01*
X12886492Y-35061433D01*
X12854038Y-35059500D01*
X11585962Y-35059500D01*
X11555416Y-35061319D01*
X11538749Y-35062312D01*
X11333397Y-35106984D01*
X11333386Y-35106987D01*
X11140191Y-35189718D01*
X10966137Y-35307521D01*
X10966132Y-35307525D01*
X10860477Y-35413181D01*
X10799154Y-35446666D01*
X10772796Y-35449500D01*
X7119336Y-35449500D01*
X7052297Y-35429815D01*
X7031655Y-35413181D01*
X5486819Y-33868345D01*
X5453334Y-33807022D01*
X5450500Y-33780664D01*
X5450500Y-33455946D01*
X16819500Y-33455946D01*
X16819500Y-33764053D01*
X16819501Y-33764069D01*
X16859717Y-34069542D01*
X16939464Y-34367162D01*
X17057376Y-34651826D01*
X17057381Y-34651837D01*
X17150014Y-34812280D01*
X17211438Y-34918670D01*
X17211440Y-34918673D01*
X17211441Y-34918674D01*
X17399007Y-35163115D01*
X17399013Y-35163122D01*
X17616877Y-35380986D01*
X17616884Y-35380992D01*
X17714812Y-35456135D01*
X17861330Y-35568562D01*
X17968068Y-35630187D01*
X18128162Y-35722618D01*
X18128167Y-35722620D01*
X18128170Y-35722622D01*
X18412836Y-35840535D01*
X18710456Y-35920282D01*
X19015940Y-35960500D01*
X19015947Y-35960500D01*
X20424053Y-35960500D01*
X20424060Y-35960500D01*
X20729544Y-35920282D01*
X21027164Y-35840535D01*
X21311830Y-35722622D01*
X21578670Y-35568562D01*
X21823117Y-35380991D01*
X22040991Y-35163117D01*
X22228562Y-34918670D01*
X22382622Y-34651830D01*
X22500535Y-34367164D01*
X22580282Y-34069544D01*
X22620500Y-33764060D01*
X22620500Y-33455940D01*
X22580282Y-33150456D01*
X22500535Y-32852836D01*
X22382622Y-32568170D01*
X22382620Y-32568167D01*
X22382618Y-32568162D01*
X22327578Y-32472830D01*
X22228562Y-32301330D01*
X22040991Y-32056883D01*
X22040986Y-32056877D01*
X21823122Y-31839013D01*
X21823115Y-31839007D01*
X21578674Y-31651441D01*
X21578673Y-31651440D01*
X21578670Y-31651438D01*
X21472280Y-31590014D01*
X21311837Y-31497381D01*
X21311826Y-31497376D01*
X21027162Y-31379464D01*
X20729542Y-31299717D01*
X20424069Y-31259501D01*
X20424066Y-31259500D01*
X20424060Y-31259500D01*
X19015940Y-31259500D01*
X19015934Y-31259500D01*
X19015930Y-31259501D01*
X18710457Y-31299717D01*
X18412837Y-31379464D01*
X18128173Y-31497376D01*
X18128162Y-31497381D01*
X17861325Y-31651441D01*
X17616884Y-31839007D01*
X17616877Y-31839013D01*
X17399013Y-32056877D01*
X17399007Y-32056884D01*
X17211441Y-32301325D01*
X17057381Y-32568162D01*
X17057376Y-32568173D01*
X16939464Y-32852837D01*
X16859717Y-33150457D01*
X16819501Y-33455930D01*
X16819500Y-33455946D01*
X5450500Y-33455946D01*
X5450500Y-18314500D01*
X5470185Y-18247461D01*
X5522989Y-18201706D01*
X5574500Y-18190500D01*
X8635995Y-18190500D01*
X8703034Y-18210185D01*
X8748789Y-18262989D01*
X8758733Y-18332147D01*
X8747083Y-18369594D01*
X8676964Y-18510976D01*
X8676963Y-18510978D01*
X8632317Y-18690500D01*
X8629500Y-18732048D01*
X8629500Y-20227951D01*
X8632317Y-20269499D01*
X8676963Y-20449021D01*
X8676964Y-20449023D01*
X8759157Y-20614753D01*
X8786185Y-20648377D01*
X8812844Y-20712961D01*
X8800354Y-20781705D01*
X8752680Y-20832784D01*
X8706197Y-20847489D01*
X8706395Y-20848737D01*
X8507173Y-20880290D01*
X8319969Y-20941117D01*
X8144594Y-21030476D01*
X8053741Y-21096485D01*
X7985354Y-21146172D01*
X7985352Y-21146174D01*
X7985351Y-21146174D01*
X6596174Y-22535351D01*
X6596174Y-22535352D01*
X6596172Y-22535354D01*
X6546485Y-22603741D01*
X6480476Y-22694594D01*
X6391117Y-22869969D01*
X6376601Y-22914647D01*
X6330291Y-23057173D01*
X6299500Y-23251577D01*
X6299500Y-25372877D01*
X6279815Y-25439916D01*
X6275818Y-25445762D01*
X6138368Y-25634945D01*
X6020422Y-25866423D01*
X5940140Y-26113506D01*
X5899500Y-26370097D01*
X5899500Y-26629902D01*
X5940140Y-26886493D01*
X6020422Y-27133576D01*
X6101534Y-27292764D01*
X6138366Y-27365051D01*
X6291069Y-27575229D01*
X6474771Y-27758931D01*
X6684949Y-27911634D01*
X6832445Y-27986787D01*
X6916423Y-28029577D01*
X6916425Y-28029577D01*
X6916428Y-28029579D01*
X7163507Y-28109860D01*
X7295706Y-28130797D01*
X7420098Y-28150500D01*
X7420103Y-28150500D01*
X7679902Y-28150500D01*
X7793298Y-28132539D01*
X7936493Y-28109860D01*
X8183572Y-28029579D01*
X8415051Y-27911634D01*
X8604238Y-27774182D01*
X8670044Y-27750702D01*
X8677123Y-27750500D01*
X34003059Y-27750500D01*
X34070098Y-27770185D01*
X34113543Y-27818204D01*
X34188366Y-27965051D01*
X34325819Y-28154239D01*
X34349298Y-28220043D01*
X34349500Y-28227122D01*
X34349500Y-35330663D01*
X34329815Y-35397702D01*
X34313181Y-35418344D01*
X29308345Y-40423181D01*
X29247022Y-40456666D01*
X29220664Y-40459500D01*
X27847123Y-40459500D01*
X27780084Y-40439815D01*
X27774238Y-40435818D01*
X27585054Y-40298368D01*
X27585053Y-40298367D01*
X27585051Y-40298366D01*
X27512764Y-40261534D01*
X27353576Y-40180422D01*
X27106493Y-40100140D01*
X26849902Y-40059500D01*
X26849897Y-40059500D01*
X26590103Y-40059500D01*
X26590098Y-40059500D01*
X26333506Y-40100140D01*
X26086423Y-40180422D01*
X25854945Y-40298368D01*
X25644774Y-40451066D01*
X25644768Y-40451071D01*
X25461071Y-40634768D01*
X25461066Y-40634774D01*
X25308368Y-40844945D01*
X25190422Y-41076423D01*
X25110140Y-41323506D01*
X25069500Y-41580097D01*
X25069500Y-41664496D01*
X25067161Y-41675177D01*
X25068190Y-41682471D01*
X25059791Y-41708839D01*
X25058156Y-41716309D01*
X25057106Y-41718590D01*
X25041116Y-41749974D01*
X25041116Y-41749975D01*
X25037373Y-41761494D01*
X25037365Y-41761512D01*
X24980291Y-41937169D01*
X24980291Y-41937172D01*
X24949500Y-42131577D01*
X24949500Y-64272877D01*
X24929815Y-64339916D01*
X24925818Y-64345762D01*
X24788368Y-64534945D01*
X24670422Y-64766423D01*
X24590140Y-65013506D01*
X24549500Y-65270097D01*
X24549500Y-65529902D01*
X24590140Y-65786493D01*
X24670422Y-66033576D01*
X24751534Y-66192764D01*
X24788366Y-66265051D01*
X24941069Y-66475229D01*
X25124771Y-66658931D01*
X25334949Y-66811634D01*
X25482445Y-66886787D01*
X25566423Y-66929577D01*
X25566425Y-66929577D01*
X25566428Y-66929579D01*
X25813507Y-67009860D01*
X25945706Y-67030797D01*
X26070098Y-67050500D01*
X26070103Y-67050500D01*
X26329902Y-67050500D01*
X26443298Y-67032539D01*
X26586493Y-67009860D01*
X26833572Y-66929579D01*
X27065051Y-66811634D01*
X27275229Y-66658931D01*
X27458931Y-66475229D01*
X27611634Y-66265051D01*
X27729579Y-66033572D01*
X27809860Y-65786493D01*
X27832539Y-65643298D01*
X27850500Y-65529902D01*
X27850500Y-65270097D01*
X27828947Y-65134021D01*
X27809860Y-65013507D01*
X27729579Y-64766428D01*
X27729577Y-64766425D01*
X27729577Y-64766423D01*
X27686787Y-64682445D01*
X27611634Y-64534949D01*
X27474182Y-64345762D01*
X27450702Y-64279956D01*
X27450500Y-64272877D01*
X27450500Y-43266178D01*
X27470185Y-43199139D01*
X27518206Y-43155693D01*
X27585051Y-43121634D01*
X27774238Y-42984182D01*
X27840044Y-42960702D01*
X27847123Y-42960500D01*
X29888422Y-42960500D01*
X30082826Y-42929709D01*
X30270026Y-42868884D01*
X30445405Y-42779524D01*
X30604646Y-42663828D01*
X36553829Y-36714646D01*
X36669524Y-36555405D01*
X36758884Y-36380026D01*
X36819709Y-36192826D01*
X36850500Y-35998421D01*
X36850500Y-28227122D01*
X36870185Y-28160083D01*
X36874161Y-28154265D01*
X37011634Y-27965051D01*
X37129579Y-27733572D01*
X37209860Y-27486493D01*
X37232539Y-27343298D01*
X37250500Y-27229902D01*
X37250500Y-26970097D01*
X37228947Y-26834021D01*
X37209860Y-26713507D01*
X37129579Y-26466428D01*
X37129577Y-26466425D01*
X37129577Y-26466423D01*
X37080496Y-26370097D01*
X37011634Y-26234949D01*
X36858931Y-26024771D01*
X36675229Y-25841069D01*
X36465051Y-25688366D01*
X36360207Y-25634945D01*
X36233576Y-25570422D01*
X35986493Y-25490140D01*
X35729902Y-25449500D01*
X35729897Y-25449500D01*
X35721421Y-25449500D01*
X35660005Y-25432178D01*
X35659746Y-25432688D01*
X35657183Y-25431382D01*
X35656629Y-25431226D01*
X35655407Y-25430477D01*
X35480030Y-25341117D01*
X35292826Y-25280290D01*
X35098422Y-25249500D01*
X35098417Y-25249500D01*
X8924500Y-25249500D01*
X8857461Y-25229815D01*
X8811706Y-25177011D01*
X8800500Y-25125500D01*
X8800500Y-23919335D01*
X8820185Y-23852296D01*
X8836815Y-23831658D01*
X9060524Y-23607948D01*
X9121847Y-23574464D01*
X9177732Y-23578320D01*
X9178455Y-23575414D01*
X9184976Y-23577035D01*
X9184979Y-23577037D01*
X9364501Y-23621682D01*
X9364502Y-23621682D01*
X9364505Y-23621683D01*
X9406046Y-23624500D01*
X9406048Y-23624500D01*
X13553957Y-23624500D01*
X13553957Y-23624499D01*
X13568031Y-23623545D01*
X13636249Y-23638644D01*
X13685474Y-23688229D01*
X13700426Y-23747777D01*
X13700000Y-23849999D01*
X13700000Y-23850000D01*
X26450000Y-23800000D01*
X26449549Y-23742737D01*
X26468705Y-23675546D01*
X26521146Y-23629376D01*
X26590224Y-23618888D01*
X26603472Y-23621427D01*
X26604495Y-23621681D01*
X26604498Y-23621682D01*
X26604502Y-23621682D01*
X26604505Y-23621683D01*
X26646046Y-23624500D01*
X26646048Y-23624500D01*
X30793952Y-23624500D01*
X30793954Y-23624500D01*
X30835495Y-23621683D01*
X31015021Y-23577037D01*
X31180753Y-23494842D01*
X31324940Y-23378940D01*
X31440842Y-23234753D01*
X31523037Y-23069021D01*
X31567683Y-22889495D01*
X31570500Y-22847954D01*
X31570500Y-21352046D01*
X31567683Y-21310505D01*
X31523037Y-21130979D01*
X31440842Y-20965247D01*
X31362420Y-20867687D01*
X31335762Y-20803104D01*
X31348252Y-20734360D01*
X31362421Y-20712312D01*
X31440842Y-20614753D01*
X31523037Y-20449021D01*
X31567683Y-20269495D01*
X31570500Y-20227954D01*
X31570500Y-18732046D01*
X31567683Y-18690505D01*
X31523037Y-18510979D01*
X31440842Y-18345247D01*
X31394573Y-18287687D01*
X31367915Y-18223104D01*
X31380405Y-18154360D01*
X31394574Y-18132312D01*
X31440842Y-18074753D01*
X31523037Y-17909021D01*
X31567683Y-17729495D01*
X31570500Y-17687954D01*
X31570500Y-16192046D01*
X31567683Y-16150505D01*
X31523037Y-15970979D01*
X31440842Y-15805247D01*
X31394573Y-15747687D01*
X31367915Y-15683104D01*
X31380405Y-15614360D01*
X31394574Y-15592312D01*
X31440842Y-15534753D01*
X31523037Y-15369021D01*
X31567683Y-15189495D01*
X31570500Y-15147954D01*
X31570500Y-13652046D01*
X31567683Y-13610505D01*
X31523037Y-13430979D01*
X31440842Y-13265247D01*
X31394573Y-13207687D01*
X31367915Y-13143104D01*
X31380405Y-13074360D01*
X31394574Y-13052312D01*
X31405105Y-13039211D01*
X31440842Y-12994753D01*
X31523037Y-12829021D01*
X31567683Y-12649495D01*
X31570500Y-12607954D01*
X31570500Y-11112046D01*
X31567683Y-11070505D01*
X31523037Y-10890979D01*
X31440842Y-10725247D01*
X31394573Y-10667687D01*
X31367915Y-10603104D01*
X31380405Y-10534360D01*
X31394574Y-10512312D01*
X31440842Y-10454753D01*
X31523037Y-10289021D01*
X31567683Y-10109495D01*
X31570500Y-10067954D01*
X31570500Y-8572046D01*
X31567683Y-8530505D01*
X31523037Y-8350979D01*
X31452917Y-8209594D01*
X31440765Y-8140789D01*
X31467742Y-8076337D01*
X31525281Y-8036702D01*
X31564005Y-8030500D01*
X33910664Y-8030500D01*
X33977703Y-8050185D01*
X33998345Y-8066819D01*
X34313181Y-8381655D01*
X34346666Y-8442978D01*
X34349500Y-8469336D01*
X34349500Y-13272877D01*
X34329815Y-13339916D01*
X34325818Y-13345762D01*
X34188368Y-13534945D01*
X34070422Y-13766423D01*
X33990140Y-14013506D01*
X33949500Y-14270097D01*
X33949500Y-14529902D01*
X33990140Y-14786493D01*
X34070422Y-15033576D01*
X34188368Y-15265054D01*
X34291623Y-15407172D01*
X34341069Y-15475229D01*
X34524771Y-15658931D01*
X34734949Y-15811634D01*
X34858954Y-15874818D01*
X34966423Y-15929577D01*
X34966425Y-15929577D01*
X34966428Y-15929579D01*
X35213507Y-16009860D01*
X35345706Y-16030797D01*
X35470098Y-16050500D01*
X35470103Y-16050500D01*
X35729902Y-16050500D01*
X35843298Y-16032539D01*
X35986493Y-16009860D01*
X36233572Y-15929579D01*
X36465051Y-15811634D01*
X36675229Y-15658931D01*
X36858931Y-15475229D01*
X37011634Y-15265051D01*
X37129579Y-15033572D01*
X37209860Y-14786493D01*
X37232539Y-14643298D01*
X37250500Y-14529902D01*
X37250500Y-14270097D01*
X37228947Y-14134021D01*
X37209860Y-14013507D01*
X37129579Y-13766428D01*
X37129577Y-13766425D01*
X37129577Y-13766423D01*
X37071298Y-13652046D01*
X37011634Y-13534949D01*
X36947133Y-13446171D01*
X36874182Y-13345762D01*
X36850702Y-13279956D01*
X36850500Y-13272877D01*
X36850500Y-7801577D01*
X36832586Y-7688483D01*
X36819709Y-7607174D01*
X36819708Y-7607170D01*
X36819708Y-7607169D01*
X36760391Y-7424612D01*
X36759329Y-7420847D01*
X36669523Y-7244594D01*
X36553828Y-7085354D01*
X35294646Y-5826172D01*
X35135405Y-5710476D01*
X34960030Y-5621117D01*
X34772826Y-5560290D01*
X34578422Y-5529500D01*
X34578417Y-5529500D01*
X31403980Y-5529500D01*
X31336941Y-5509815D01*
X31326292Y-5502147D01*
X31319761Y-5496897D01*
X31180753Y-5385158D01*
X31180751Y-5385157D01*
X31180750Y-5385156D01*
X31015023Y-5302964D01*
X31015021Y-5302963D01*
X30835497Y-5258317D01*
X30835501Y-5258317D01*
X30804339Y-5256204D01*
X30793954Y-5255500D01*
X26646046Y-5255500D01*
X26600106Y-5258615D01*
X26531888Y-5243511D01*
X26482666Y-5193923D01*
X26467720Y-5134221D01*
X26477557Y-3345082D01*
X26497610Y-3278155D01*
X26550665Y-3232691D01*
X26609942Y-3222051D01*
X26646046Y-3224500D01*
X26646050Y-3224500D01*
X30793952Y-3224500D01*
X30793954Y-3224500D01*
X30835495Y-3221683D01*
X31015021Y-3177037D01*
X31180753Y-3094842D01*
X31324940Y-2978940D01*
X31440842Y-2834753D01*
X31523037Y-2669021D01*
X31567683Y-2489495D01*
X31570500Y-2447954D01*
X31570500Y-952046D01*
X31567683Y-910505D01*
X31523037Y-730979D01*
X31510747Y-706199D01*
X31498596Y-637397D01*
X31525572Y-572945D01*
X31583111Y-533309D01*
X31622255Y-527108D01*
X37875924Y-548379D01*
G37*
%TD.AperFunction*%
%TD*%
M02*
